<?xml version="1.0" encoding="UTF-8"?>
<svg version="1.1" viewBox="0 0 2000 2000" width="1280" height="1280" xmlns="http://www.w3.org/2000/svg">
<path transform="translate(674,423)" d="m0 0h38l33 2h15l3 2 20 2h7l4 3 8 2 5 5v12l1 9h16l2-12 4-11 8-5 12-5 13-3h10l14 3 14 9 12 12 6 10 4 13 2 5 2 3v30l-2 3h-2l-1 14v14l8-1 11-6 2-3 3-21 5-3h2l2-5 7 1 10 7 6 4 10 9 13 10 9 8 11 9 15 14 41 41 7 8 11 13 12 16 9 13 13 20 15 28 10 19 12 25 11 30 4 9 3 11 3 6v7l4 4v12l4 8v9l4 6v15l3 9 1 7v15l2 10 2 2-1 87-2 7-2 29-2 8-1 13-1 5-2 5-3 16-3 15-2 4-2 11-11 27-13 34-9 20-12 21-13 22-15 24-12 17-9 12-8 10-10 10-8 7-14 12-8 7-2 9 3 10 10 5 10 3 14 8 10 8 10 13 4 8 3 9 2 12v29l-3 19-1 3v17l5 5 11 8 8 6 14 10 11 6 13 1 2-1h42l5 3 2 4v6l-4 7-1 2-27 1-2 3h-8l-5-1h-3l-11 3-5 2-12 1-4 2-16 2-14 3-10 2-2 1h-7l-14 2-5 2-22 2-16 2-36 5-9 2-38 4-22 3-13 2-46 5-24 3-44 4-18 2-2 1-35 2h-86l-38-2-7-2-81-9-26-3-29-3-33-4-32-2-3-2-32-4-21-2-21-3-19-3-19-2-31-6-22-1-7-2-18-3-6-2-11-2-5-5v-8l2-5 4-3 3 1 3-1 1-2 11-1v-7l-4-12-9-11-11-9-14-15-16-17-10-14-1-3v-11l6-12 9-10 12-13 12-9 17-12 8-6 12-7 24-10 19-4h31l6 2 7-1 1-2 7-3-1-5-6-9-11-12-11-14-13-16-11-16-10-16-13-23-9-16-8-15-13-28-9-22-8-24-7-29-5-20v-4l-4 1-1-5 3-1-2-9-4-28-2-17-1-20v-41l1-44 6-37 8-37 9-34 9-29 10-27 12-25 8-14 14-24 10-16 17-25 12-16 9-11 11-13 39-39 11-9 13-11 16-12 13-9 16-10 15-9 16-9 18-10 24-11 10-4 17-5 10-4 20-6 41-9 15-3 22-3 5-1 25-2zm-486 636 1 2zm13 465v5h2v-5zm1 7m-2 5 2 3 12 3 15 3h6v-1l-28-6-4-2z" fill="#072A2F"/>
<path transform="translate(655,455)" d="m0 0h25l1 4-3 7-5 23v11l4 11 3 3v2l4 2 8 7 7 11 1 3v14l-4 11-6 8-15 14-6 10-5 15-1 6v21l5 17 9 17 9 10 7 7 6 5 1 3 2 24v15l-1 7h-24l-19 1-24 4-19 6-18 8-17 9-16 11-17 13-8 9-11 14-13 18-13 25-8 19-6 19-5 23-3 26v30l5 39 6 25 9 27 7 13 9 10 8 7 14 7 8 2 9 1 5 4 7 9-1 4-12 7-14 11-15 13-10 9-17 17-7 8-7 7-7 8-9 10-9 14-12 19-7 11-9 16-4 7-9-2-15-3-8-1h-15l-17 3-15 5-11 6-4-1-8-8-9-11-9-12-14-21-12-21-10-15-11-20-15-34-8-20-2-7-3-7-3-10-3-9-5-16-2-9-3-12-4-18-3-25-1-21v-10l-1-2v-54l1-13v-8l1-3v-13l1-5 1-11 1-7 2-8 2-12 2-9 2-6 2-10 2-7 4-13 4-12 8-20 4-12 5-11 3-7 4-9 6-13h2l2-7h2l1-5h2l1-5h2v-3h2l2-7h2l1-5h2l1-5h2l2-6 6-12 4-6h2v-3h2l1-4h2v-3h2l4-8h2l1-4h2l2-5 5-5 4-5h2l2-4 5-5 7-9 8-7 4-5h2l2-4 5-5h2l2-4 7-6 7-8 5-2v-2l4-2 3-3h2v-2l6-4h2v-2h3v-2l7-4 4-1v-2h3v-2l6-3h2v-2h3v-2l6-3h2v-2l7-4 6-2v-2h3v-2l5-1v-2l9-4h2l1-2 9-3 1-2 9-4 8-4 14-5 6-3 11-4 13-5 17-5 18-5 11-2 11-3 12-1 11-2 16-1z" fill="#8CD24C"/>
<path transform="translate(863,424)" d="m0 0h10l14 3 14 9 12 12 6 10 4 13 2 5 2 3v30l-2 3h-2l-1 14v14l8-1 11-6 2-3 2-8 2 2 3 5 10 9 13 9 14 11 13 11 8 7 3 2v2l4 2 20 20 9 11 12 14 11 12 13 17 7 10 10 15 13 21 10 17 8 19 17 43 9 25 10 37 6 34 3 21 2 24v61l-3 32-4 26-5 23-4 18-9 30-8 21-13 30-6 16-10 19-11 18-13 18-10 14-10 13-11 12-7 8-6 6-3-1-1-2-3-21-7-25-7-19-15-30-8-14-10-15-9-12-9-10-7-9-8-7-4-5-11-9-15-11-13-8-14-8-1-1-1-16-4-18-9-17-3-4 2-4 3-3h2l2-4 8-11 5-14 3-14v-59l-2-18-4-18-7-21-10-22-16-27-9-11-9-8-11-8-15-10-17-8-21-7-20-3h-11l-5 1h-7l-27-9-15-3-2-1 1-7v-15l-2-26 5 2 10 5 20 4 23 2 11 9 8 7 18 11 18 6 29 6 17 1 2 1 6 18 6 8 7 8 8 14 8 10 7 7 16 10 14 6 16 4 7 1h30l13-3 6-4 2-5v-8l-3-5-7-3-12 1-8 1h-18l-18-4-10-4-10-6-10-8-5-9-2-9-14-13-5-10v-12l2-7 8-5 6-3h2l2-5 9-20 11-12 14-9 15-6 7-2h28l16 4 9 4 10 6 9 8 9 12 4 2 9-1 7-6 1-2-1-10-4-6-9-10-8-8-14-9-16-7-15-4-7-1h-22l-20 4-21 9-12 8-12 10-10 13-9 16-13 11-4 5-4 8h-9l-23-3-20-5-12-4-10-9-7-11-2-5v-10l4-10 4-5 7-5 3-1h15l8 4 5 6 6 18 5 3h8l6-3 3-5 1-3v-12l-4-11-8-11-10-6-9-4-14-1h-13l-18 5-9 6-9 11-6 12-1 3-2 15h-17l-13-4-8-5-5-4-10-13-5-10-3-13v-10l4-12 6-9 5-6 5-4 10-15 5-14 1-6v-17l-3-12-7-14-11-14-4-3v-8l3-13 5-16 1-3h12l37 2 26 2h16l4-6v-8h2l2 15h16l2-12 4-11 8-5 12-5z" fill="#AF78E8"/>
<path transform="translate(588,1143)" d="m0 0 6 2 2 4 4 2 13 8 18 10 14 6 9 3 9 2 8 16 8 10 9 7 13 8 15 6 9 2-1 2h-5v63l-1 3h2v2l-14 4-9 5-10 9-7 10-4 12-3 19-1 3-5-2-25-12-28-11-15-5-1-2 6-14 10-25 6-11 2-5-1-9-5-5h-9l-8 5-6 9-8 16-9 20-5 14-3 1-21-3h-43l-16 3-5 3-3 5-1 7 2 6 4 1 12 1 40 1 22 2 24 4 23 6 17 6 5 3-1 3-8 4-5 5-8 9-8 14-4 13-1 5v20l-4 1h-23l-47-2-27-3-19-4-12-4-16-9-5-4-9-13-5-11-2-10v-14l3-17 6-19 5-11 5-13 11-21 10-18 13-20 10-13 3-5h2l2-5 4-5h2l2-5 29-29h2l2-4 5-4 5-6h2v-2l4-3h2l1-3 9-7 5-2v-2l11-7z" fill="#FC7C07"/>
<path transform="translate(674,770)" d="m0 0h11l20 2 13 4 20 8h10l11-1h11l19 3 17 6 14 9 10 8 12 12 3 4v2h2l1 4h2l6 10v2h2l6 12v5l2 1v4l2 1-1 2 2 1 4 10 3 17 1 9v14l-6-2-13-7-6-7-13-28-12-21-12-17-12-13-6-4h-2l3 11 7 26 6 17 13 33 6 12 2 5-1 1h-17l-16-4-9-5-13-10-10-12-8-14-5-15-3-20-2-26-4-8-4-2h-7l-6 8-8 21-11 32-8 16-8 15-11 17-10 14-9 10-7 8-11 9-17 12-14 9-16 7-15 5-14 3-6 1h-19l-15-1-14 8-2-4-3-21-1-10v-13l2-17 3-17 3-13 4-16 6-15 8-17 8-15 4-7h2l2-5 2-3h2l2-4 4-5 8-7 5-5 4-2 1-3 13-9 16-8 13-5 11-5 16-4 11-2z" fill="#59A31B"/>
<path transform="translate(728,890)" d="m0 0 3 1 7 14 10 13 6 7 2 1v2l3 1 4 4 8 6 12 6 9 5 14 4 7 1h19l14-4 8-7h9l4 2v2l4 2 5 8 3 10v10l-3 11-5 9-5 5h-2l-1 2h-10l-14 3-16 11-7 5h-2l-2 4-11 11-6 7h-2l-1 5-8 14-10 19-5 11-7 20-6 25-3 7-21 5-13 2h-34l-22-4-15-5-16-7-11-7-15-10-10-9-10-10-11-15-4-4v-2h-6l-4 1h-12l-10-5-8-9-5-8-2-9v-9l2-6 2-5h2l1-3h2v-2l4-1h26l18-3 19-5 21-9 15-10 11-7 13-10 12-10 1-2h2l2-4 10-9 7-7 8-11 6-10 8-16 11-19z" fill="#FDD1B6"/>
<path transform="translate(699,695)" d="m0 0 5 2 10 5 20 4 23 2 11 9 8 7 18 11 18 6 29 6 17 1 2 1 6 18 6 8 7 8 8 14 8 10 7 7 16 10 14 6 16 4 7 1h30l9-1-2 2-3 1 3 18v6l9 2 6 3 5 4 4 7v13l-6 9-7 5-8 2-9-1-8-4v4l-2 1 1 2 1 14 1 6-1 3-2 2-1 2 11 4 7 8 3 7v10l-4 8-8 6-7 4v7l2 7v4h2l1 4-8 7-4 6h-2l-3 10v20l1 5h2l4 6v2l4 1 3 3 13 6 1 36 5 10 9 6 16 5v3l5 1 6 5 2 5 6 11 7 9 6 11v2l5-1 5-2 8-10 6-13 3-12v-14l-4-11-6-9-6-8-1-7 4-9 5-3 7-1 8 3 7 6 9 16 4 13 2 10v16l-4 18-5 12-7 12-9 11-10 11 3 4 6 14 3 5 1 2 6-3-2 5-24 32-11 12-7 8-6 6-3-1-1-2-3-21-7-25-7-19-15-30-8-14-10-15-9-12-9-10-7-9-8-7-4-5-11-9-15-11-13-8-14-8-1-1-1-16-4-18-9-17-3-4 2-4 3-3h2l2-4 8-11 5-14 3-14v-59l-2-18-4-18-7-21-10-22-16-27-9-11-9-8-11-8-15-10-17-8-21-7-20-3h-11l-5 1h-7l-27-9-15-3-2-1 1-7v-15z" fill="#9962D6"/>
<path transform="translate(893,1109)" d="m0 0 5 1v2h3v2l4 1 3 2v2l4 1 7 6 6 3 3 4 5 2 12 12 7 8 9 13 4 8h2l6 9 3 7 9 15h2l8 16 6 15 5 15 5 19 4 22 1 9v31l-2 14-3 12-5 12-7 10-7 8-9 8-14 8-15 5-15 2-16-1-18-6-15-8-16-13-19-19-11-14-14-21-12-22-12-25-11-28-6-20-1-10v-5l3-1 2 1 1-2 2 1 1-2 7-3 9-4 2 1 1-2 8-4h3l1-2 16-11 7-6h2v-2h3v3h2v3l3 1 2 5 8 9 2 3v3l2 1 4 7v2l4 2 2 3v3l3 1 1 3 3 2v3l3 1v3l3 1 1 3 4 3 1 3 5 4 2 4 5 5v2l3 1 4 5 8 8 6 5 18 12 5 3h2v-9l-4-16-9-14-9-11-9-10-12-16-10-12-13-17-10-13-10-15-6-11 1-5 8-16 8-14 4-8z" fill="#06A8F9"/>
<path transform="translate(380,858)" d="m0 0 9 2 12 12 9 14 8 16 8 20 6 23 3 21v23l-4 17-8 16-8 10-7 6-10 5-17 5-21 1-13-2-13 6-13 3h-11l-15-3-16-7-14-7-13-12-7-10-8-16-6-18-4-22v-24l3-5 2-1h20l22 1 17 3 24 9 1-10 6-16 9-15 12-16 11-11 10-7 13-10z" fill="#062A2E"/>
<path transform="translate(509,1487)" d="m0 0h30l21 1 10 1 7 1 11 2 5 1 11 3 12 3 15 6 16 8 17 10 9 7 10 9 4 4v3h2v3l2 1 4 10 1 9 2 3 8-1 1-5 1-9 2-5 1-5 2-3h2l2-4 15-15 4-3h3v-2l12-7 20-10 22-8 22-5 13-1 10-1 7-1h59l32 2 7 1 17 1 19 2 18 1 23 2 17 2 19 2 24 4 9 3 12 6 1 3-134 1-39 3-31 3-31 4-33 5-43 8-23 4-6 3-10 13-4 5-11 8-10 3-22 1h-17l-15-2-10-3-9-6-9-10-6-8-5-3-17-4-78-14-39-5-32-3-37-2-125-1h-5l2-4 8-4 19-5 27-4 22-2 19-2 89-7h10z" fill="#DE872C"/>
<path transform="translate(674,770)" d="m0 0h11l20 2 13 4 20 8h10l11-1h11l19 3 17 6 14 9 10 8 12 12 3 4v2h2l1 4h2l6 10v2h2l6 12v5l2 1v4l2 1-1 2 2 1 1 2-1 2-4-1-12-17-10-15-9-11-14-14-13-9-15-8-12-4-12-2h-9l-12 3-9 3-3-3-13-5-17-1-5-1-9 1-7 9-15 27-14 24-9 14-10 13-11 15-8 11-14 15-13 13-14 11-13 10-14 8-5 2-2 7h-2l-2 5-3 9-6 12-15 9-2-4-3-21-1-10v-13l2-17 3-17 3-13 4-16 6-15 8-17 8-15 4-7h2l2-5 2-3h2l2-4 4-5 8-7 5-5 4-2 1-3 13-9 16-8 13-5 11-5 16-4 11-2z" fill="#8CD24C"/>
<path transform="translate(655,455)" d="m0 0h25l1 4-3 5-25 4-28 5-25 6-33 9-39 14-30 13-23 11-24 14-18 11-19 13-16 13-12 11-11 10-7 8-12 13-11 12-8 9-20 26-13 19-10 17-12 23-13 28-12 29-9 25-9 32-7 28-6 30-5 37v40l4 39 5 35 9 43 8 33 10 33 6 22-1 2-8-16-9-21-4-9v-4l-2-1v-2l-2-1-5-13-3-10-3-9-5-16-2-9-3-12-4-18-3-25-1-21v-10l-1-2v-54l1-13v-8l1-3v-13l1-5 1-11 1-7 2-8 2-12 2-9 2-6 2-10 2-7 4-13 4-12 8-20 4-12 5-11 3-7 4-9 6-13h2l2-7h2l1-5h2l1-5h2v-3h2l2-7h2l1-5h2l1-5h2l2-6 6-12 4-6h2v-3h2l1-4h2v-3h2l4-8h2l1-4h2l2-5 5-5 4-5h2l2-4 5-5 7-9 8-7 4-5h2l2-4 5-5h2l2-4 7-6 7-8 5-2v-2l4-2 3-3h2v-2l6-4h2v-2h3v-2l7-4 4-1v-2h3v-2l6-3h2v-2h3v-2l6-3h2v-2l7-4 6-2v-2h3v-2l5-1v-2l9-4h2l1-2 9-3 1-2 9-4 8-4 14-5 6-3 11-4 13-5 17-5 18-5 11-2 11-3 12-1 11-2 16-1z" fill="#F2F8D7"/>
<path transform="translate(847,1403)" d="m0 0 5 2 12 10 17 12 12 6 17 5 13 2h26l15-2 12-5 6-2 5 2 13 10 16 12 11 7 3 2v2l5 2 4 3v2l4 2 11 9 3 2v2l6 2 6 5v2l-13-2-17-4-10-2-16-2-15-2-12-1-12-2-16-1-12-2h-7l-6-1-25-1-12-1h-43l-34 3-16 2-25 7-10 3-15 7-17 9-4 3h-3v2h-3v2l-4 1-2 4-4 1 1-9 4-20 4-5h2l1-3 5-3h3l1-3 5-3h2l1-3 6-5h3l1-4 5-8 2-9v-15l-1-5 11-5 13-4 10-4 26-6 12-2z" fill="#FBFBFC"/>
<path transform="translate(966,636)" d="m0 0h22l15 3 15 5 15 8 10 8 13 13 6 9 1 10-7 8-6 2-7-1-5-5-11-13-10-7-10-5-13-4-6-1h-28l-18 6-14 8-11 10-6 10-7 16-4 4-13 7-2 7v12l5 10 7 7 7 6 3 11 6 9 13 9 10 5 16 4 6 1h18l14-2 9 1 5 3 3 5v8l-3 6-6 4-13 3h-30l-16-3-15-5-13-7-11-8-9-9-9-14-6-10-8-8-5-10-3-10v-3l-19-1-29-6-18-6-18-11-11-10-8-6-16-1v-1l14-1 4-1 6 4 1 4 5 2 14 7h3l-3-2-1-4 3-1-1-4 3 1 1-3-6-9 1-3 5 5 7 6 19 6 20 4 16 2h9l5-10 7-7 8-6 11-19 10-12 11-9 16-10 17-7z" fill="#08273C"/>
<path transform="translate(599,625)" d="m0 0h15l9 2 11 6 10 9 6 9 4 8 2 5 1 16-2 10-4 10-6 8-9 8-11 7-13 4h-13l-12-3-16-7-11 9-7 9-5 12-4 14-4 15-5 10-6 4-3 1h-11l-5-2-4-5-1-2v-8l4-7 5-4 9-27 8-17 9-10 9-9 6-2-2-12v-14l4-16 6-10 9-10 10-7 8-3z" fill="#06292F"/>
<path transform="translate(201,1521)" d="m0 0 3 1-1 2h-2v5l-2 1 1 3h2l-1 4 7 3 22 4v-1l15-1h179l35 1 27 2 2 1 17 1 40 6 35 6 5 1 39 7 3 4 5 10 12 10 10 5 3 1-1 2-38-2-7-2-81-9-26-3-29-3-33-4-32-2-3-2-32-4-21-2-21-3-19-3-19-2-31-6-22-1-7-2-18-3-6-2-11-2-5-5v-8l2-5z" fill="#C5C7CD"/>
<path transform="translate(970,1542)" d="m0 0h187l1 2-6 3-13 1-4 2-16 2-14 3-10 2-2 1h-7l-14 2-5 2-22 2-16 2-36 5-9 2-38 4-22 3-13 2-46 5-24 3-44 4-18 2-2 1-17 1h-17l3-2 10-5 11-9 7-11 4-4 43-8 13-2h5l1-1 57-9 28-3 16-1h26z" fill="#C5C6CC"/>
<path transform="translate(632,487)" d="m0 0 9 1 7 6 2 4v7l-7 8-13 7-4 5-4 10-1 4v7l4 13 6 9 10 6 6 4 3 5v9l-6 7-6 2-9-1-10-6-10-9-7-9-8-14-8-3-20-3h-26l-17 2-17 4-16 6-23 12-10 8-6 5-1 10-5 8-5 4-5 2h-9l-6-3-6-7-2-6v-8l3-6 6-7 13-10 20-14 13-8 12-5 15-5 19-5 12-2 11-1h35l23 2 1-7 7-14 8-10 9-8 9-5z" fill="#062A2F"/>
<path transform="translate(363,630)" d="m0 0h9l6 4 3 7-1 8-12 18-10 19-5 15-2 11v21l4 19 6 15 6 11 10 14 11 9 14 8 16 6 18 3 26 1 10 5 10 10 7 14v9l-4 8-6 5-2 1h-10l-8-3-7-14-2-6-21-2-22-5-16-7-11-6-13-11-10-9-9-11-9-12-7-15-6-17-3-17-1-13 2-19 5-19 7-17 11-20 9-12z" fill="#06292E"/>
<path transform="translate(290,1360)" d="m0 0h19l9 1 12 2 12 4 3 2v2l5 2 10 8 6 5 10 13 10 14 1 3-11-2-25-5-12-2-33-3-18-1h-20l-12 2-4 4-1 6 3 7 8 3 47 5 10 2 3 2-9 4-20 7-11 2h-27l-12-2-11-5-7-3-13-7-5-3-9-2-12-1-2-3 9-10 24-24h3l1-3h3v-2h3v-2l13-6 10-4 10-3 9-3 13-3z" fill="#8BD14B"/>
<path transform="translate(1118,829)" d="m0 0h13l6 4 2 3v9l-5 6-13 4-18 4-8 4-1 1v7l5 2 13 7 9 7 5 6 2 6v12l-4 11-8 5-10 3-19 2-19 1-6 2 2 4 14 9 9 6 6 7 1 2v12l-4 10-7 7-12 6-20 6-9 2h-10l-7-6-2-4v-8l5-5 11-4 23-5 4-4-2-3-3-1v-2l-6-2-11-6-6-9-2-6v-13l4-8 8-7 12-5 10-2 27-1 3-2v-2l-5-2-11-7-9-7-6-9-2-5v-10l4-10 6-7 10-6 13-5z" fill="#FEFEFE"/>
<path transform="translate(757,1227)" d="m0 0h2l3 10 6 21 10 28 9 21 8 19 10 19 8 12 10 14 3 3v2l-11 3-16 3-30 10-11 5h-6l3-12 4-14 3-14v-16l-4-15-6-10-7-7-12-6-13-3v-3h-2v-61l1-5 7-1 1-1 23-1z" fill="#0B8CC9"/>
<path transform="translate(845,1487)" d="m0 0h59l32 2 7 1 17 1 19 2 18 1 23 2 17 2 19 2 24 4 9 3 8 4-2 2-13-2-5-1-39-2-35-1h-48l-55 3-47 4-32 5-28 7-34 12-14 7-17 17-5 7-9 3h-6l-1-4 1-11 2-5 1-5 2-3h2l2-4 15-15 4-3h3v-2l12-7 20-10 22-8 22-5 13-1 10-1z" fill="#C4C6CC"/>
<path transform="translate(509,1487)" d="m0 0h30l21 1 10 1 7 1 11 2 5 1 11 3 12 3 15 6 16 8 17 10 9 7 10 9 4 4v3h2v3l2 1 4 10 1 9 1 4-13-3-10-8-17-17-14-7-36-12-17-5-33-6-36-4-27-2-52-2h-56l-39 1-29 3-10 3-5-1 2-2 6-3 19-5 27-4 22-2 19-2 89-7h10z" fill="#C4C6CC"/>
<path transform="translate(661,1387)" d="m0 0h14l17 4 14 7 13 11 8 7 8 13 1 5v9l-4 8-5 5h-2v2l-15 9-13 4-5 1h-17l-11-3-17-8-14-9-8-8-4-7-1-9 4-16 5-8 10-9 12-6z" fill="#FDD1B6"/>
<path transform="translate(851,1035)" d="m0 0 5 1 6 5 6 10 4 13v22l-3 14-5 14-6 11-9 13-7 9-4 5h-2l-1 8 1 6-4 2v2l-15 9-23 12h-3v2l-6 2-2-22v-13l3-24 6-24 7-18 6-12h2l4 8 1 3 5 2 6 1 1-5-2-17-1-3v-11l6-11h4l8 17 5 13 4 5 3 1 1-23v-11z" fill="#FCD1B6"/>
<path transform="translate(863,424)" d="m0 0h10l14 3 14 9 12 12 6 10 4 13 2 5 2 3v30l-2 3h-2l-1 14v26l-3 10-6 5-7 3h-9l-6-4-6-9-3-5 1-16 4-34 1-14v-11l-3-11v8l-1 2-8-1-3-2-12-1-4-3-6-1 1-4 5-4 5-1h17l-7-2h-9l-10 4-8 9h-8l-11-4v-2h-6v-3l4-1 2-12 4-11 8-5 12-5z" fill="#082B31"/>
<path transform="translate(690,789)" d="m0 0h9l7 4 1 6-6 18-9 21-13 25-11 16-12 17-13 17-8 10-12 14-15 15-10 7-21 14-17 8-3 1h-9l-4-4-3-7 1-6 2-4 18-10 11-9 13-10 12-11 13-13 9-11 12-17 14-18 12-20 12-21 15-26z" fill="#06292E"/>
<path transform="translate(699,695)" d="m0 0 5 2 10 5 20 4 23 2 11 9 8 7 18 11 18 6 29 6 17 1 2 1 6 18 6 8 7 8 1 6h-4l-3-3-6-3v-2l-5 1-1 3 3 10 3 4 1 6-8-6-9-8-11-8-15-10-17-8-21-7-20-3h-11l-5 1h-7l-27-9-15-3-2-1 1-7v-15z" fill="#AE76E8"/>
<path transform="translate(966,636)" d="m0 0h22l15 3 15 5 15 8 10 8 13 13 6 9 1 10-7 8-6 2-7-1-5-5-11-13-10-7-10-5-13-4-6-1h-28l-18 6-14 8-11 10-6 10-7 16-4 4-5 2h-5l3-5 4-3 5-13 5-3 1-9 2-3-4-1-1 3-4 1-1 11-4 3-3 10-3 4-6 3-15 3-2-1-1 2-1-5 3-6h3l-1-2-1-4 8-7 5-5 10-17 10-12 11-9 16-10 17-7z" fill="#08273C"/>
<path transform="translate(728,890)" d="m0 0 3 1 7 14 1 3-1 2-6 2-9 20-10 18-8 11-11 12-8 9-8 7-14 11-19 13-17 9-13 5-15 4-16 3-19 2-26-1-2 7v17l2 6 4 2 9 1 9-4h9l5 2 11 13 8 11 5 5v3h2l15 15 4 5v2l4 2 9 6 23 11 18 6 20 6 14 2v1h-23l-22-4-15-5-16-7-11-7-15-10-10-9-10-10-11-15-4-4v-2h-6l-4 1h-12l-10-5-8-9-5-8-2-9v-9l2-6 2-5h2l1-3h2v-2l4-1h26l18-3 19-5 21-9 15-10 11-7 13-10 12-10 1-2h2l2-4 10-9 7-7 8-11 6-10 8-16 11-19z" fill="#EDAF99"/>
<path transform="translate(185,1423)" d="m0 0 18 2 8 3 8 5 9 5 13 5 7 2 7 1h27l13-3 24-8 2-1-2-2 17 2 31 6 2 1-2 4-18 11-22 13-13 8-14 8-14 7-6 2h-8l-13-4-17-8-11-7-12-9-16-16-10-13-7-10z" fill="#59A31B"/>
<path transform="translate(420,1440)" d="m0 0 7 1 10 8 14 7 9 3 30 7 11 1 25 2h21l10 1h22l29 1 10 1 6 4 5 4v2h2v2h3v2l4 1 17 7 12 2 3 1 15 1v22h-4l-11-9-10-6-32-14-18-6-24-5-15-2-16-1h-58l-29 2-23 2-24 3-29 4-16 2-23 3-13 3h-5l4-5 13-7 13-9 4-1v-2l14-11 5-1v-2l12-7 4-1v-2l6-3z" fill="#F4F2F7"/>
<path transform="translate(984 1e3)" d="m0 0 10 1 6 4 2 3v8l-6 9-7 8v4l8 2h9l19-3 18-6h8l7 6 1 2v6l-5 7-12 6-15 4-8 1v19l-1 16 11 4 10 3 5 5 2 9-4 8-5 3-9-1-10-4-11-3-6-4-5-5-4-8v-36l-9-3-7-4v-2l-4-1-4-6v-2h-2l-2-5v-20l4-10h2l2-5 8-8z" fill="#FEFEFD"/>
<path transform="translate(323,1086)" d="m0 0h9l15 5 25 7 12 5 7 5 7 11 2 7-1 9-6 11-9 10-1 3 23 1 5 3 4 5v9l-4 6-11 3-12 1-22-3-18-6-6-4-3-3-1-3v-7l4-7 19-10 7-6 3-6v-5l-13-4-36-6-8-4-3-5v-11l2-5 5-4z" fill="#FDFEFD"/>
<path transform="translate(377,891)" d="m0 0 4 2 13 27 6 18 6 26 1 16-2 14-7 14-9 8-14 6-6 1h-12l1-8 13-41 7-22v-5h-8l-8 4-11 16-4 8-2-1-3-7-2-2v-13l4-14 5-12 7-10 2-4h2l2-4 7-8 5-6z" fill="#59A31B"/>
<path transform="translate(674,770)" d="m0 0h11l20 2 13 4 20 8h10l11-1h11l19 3 17 6 14 9 10 8 12 12 3 4v2h2l1 4h2l6 10v2h2l6 12v5l2 1v4l2 1-1 2 2 1 1 2-1 2-4-1-12-17-10-15-9-11-14-14-13-9-15-8-12-4-12-2h-9l-12 3-9 3-8-6-15-6-12-4-10-2h-34l-17 4-19 7-17 9-14 10-13 12-5 4-7 8-12 15-9 15-11 21-10 26-8 25-3 12-3 7-1 5-2-3 2-19 3-17 3-13 4-16 6-15 8-17 8-15 4-7h2l2-5 2-3h2l2-4 4-5 8-7 5-5 4-2 1-3 13-9 16-8 13-5 11-5 16-4 11-2z" fill="#F4F8E9"/>
<path transform="translate(1079,1074)" d="m0 0 9 2 8 7 9 16 4 13 2 10v16l-4 18-5 12-7 12-9 11-13 12-8 4h-10l-6-3-3-4-1-4v-7l3-6 7-6 6-3 7-6 6-9 5-11 3-12v-14l-4-11-6-9-6-8-1-7 4-9 5-3z" fill="#08273C"/>
<path transform="translate(1037,1372)" d="m0 0 10 2 12 6 8 7 7 11 4 8 4 16v13l-3 17-5 12-11-6-11-7-13-11-9-9-16-11-6-5v-2l8-7 6-7 13-24z" fill="#59A31B"/>
<path transform="translate(588,1143)" d="m0 0 6 2 2 2v4l-11 7-6 2v2l-6 4-3 1v2l-8 7-12 11-9 9-7 8-9 8-7 8-5 7-4 4h-2l-2 5h-2l-2 6-3 1v3l-4 4-4 7-4 4-8 13-10 16-8 15-11 28-9 27-3 15-1 17 3 15 2 9-4-2-7-11-5-12-1-7v-14l3-17 6-19 5-11 5-13 11-21 10-18 13-20 10-13 3-5h2l2-5 4-5h2l2-5 29-29h2l2-4 5-4 5-6h2v-2l4-3h2l1-3 9-7 5-2v-2l11-7z" fill="#FAF7F7"/>
<path transform="translate(759,791)" d="m0 0h9l16 3 16 7 13 8 10 8 15 15 11 15 7 11 9 12v2l4 1 1-2 4 12 3 22v14l-6-2-13-7-6-7-13-28-12-21-12-17-12-13-6-4-5-2-5-8-9-6-16-6h-3v-2l-12-1 2-2z" fill="#8AD04A"/>
<path transform="translate(795,627)" d="m0 0h13l14 1 16 8 6 5 8 13 2 7v12l-3 7-5 4-3 1h-8l-5-3-3-7-5-14-6-5-5-2h-15l-7 4-5 5-3 5-4-1v-5l4-5 3-2v-3l-6 3-5 2-2 4-3 3-3 7-2-1v-3h2v-7l4-7h2v-2l-10 4-2 2-1-3-2-1 10-13 7-6 11-4z" fill="#08273C"/>
<path transform="translate(951,1493)" d="m0 0h34l20 2 15 1 17 2 19 2 24 4 9 3 8 4-2 2-13-2-5-1-39-2-35-1h-48l-55 3-47 4-32 5-28 7-34 12-11 5-2-1 8-6 7-3 26-10 25-8 26-6 21-4 69-9 20-2z" fill="#F8C9B0"/>
<path transform="translate(1068,739)" d="m0 0 11 1 6 3 5 6 2 9-3 9-8 8-6 5-11 14-9 14-7 8-8 3-8-4-5-6-1-5 3-9 8-8 9-15 5-9 5-16 7-6z" fill="#08273C"/>
<path transform="translate(788,1221)" d="m0 0 2 1 4 4 6 21 10 25 11 24 14 24 16 24 9 12 12 14 9 8 2 1v2l4 2 18 11 16 7 9 3 22 2 11-1 16-8 9-6 4-2-5 6-14 9-12 5-12 3-14 1-12-1-18-6-15-8-16-13-19-19-11-14-14-21-12-22-12-25-11-28-6-20-1-10z" fill="#0B8CCA"/>
<path transform="translate(290,1360)" d="m0 0h19l9 1 12 2 12 4 3 2v2l5 2v2l-8-1-18-2h-26l-22 4-18 6-17 8-16 12-7 7-6 10-2 5-5 1-19-1-2-3 9-10 24-24h3l1-3h3v-2h3v-2l13-6 10-4 10-3 9-3 13-3z" fill="#F3F9D8"/>
<path transform="translate(382,1302)" d="m0 0 18 1 12 4v5l-2 2-4 12h-2v-2l-4-2-8-5-5-1h-7l1 6 11 14 6 9 1 8-4 19h-4l-8-7-11-9-8-9-6-10-5-16v-7h2v-2l10-6 9-3z" fill="#89CF49"/>
<path transform="translate(257,958)" d="m0 0h16l14 2 11 5 6 4 8 9 7 14v5l-4-2-15-11-12-7-9-3-7-1 4 10 11 12 8 10 9 9 12 9 5 3-1 2h-14l-13-4-11-8-7-6-7-10-7-16-4-17z" fill="#88CE49"/>
<path transform="translate(603,651)" d="m0 0h7l9 3 5 4 4 9v17l-4 9-7 6-5 2-10 1-11-4-6-7-3-5-1-4v-12l4-8 5-5 6-4z" fill="#8BD04D"/>
<path transform="translate(481,1255)" d="m0 0 5 1 2 2-7 11-8 13-10 17-8 19-9 23-6 19-3 15-1 17 3 15 2 9-4-2-7-11-5-12-1-7v-14l3-17 6-19 5-11 5-13 11-21 5-9 3 1 3-4 2-6 5-3 3-5 2-5z" fill="#F6F8E8"/>
<path transform="translate(847,1403)" d="m0 0 5 2 12 10 17 12 12 6 17 5 13 2h26l15-2 12-5 6-2 5 2 9 7-2 1-5-2v2l-6 3-15 3-15 2-13 1h-10l-23-3-22-5-14-5-19-10-13-10-9-7-2-2-7-1v-1l12-2z" fill="#C3C3CD"/>
<path transform="translate(965,936)" d="m0 0h14l8 4 6 7 3 7v10l-4 8-8 6-10 4-10-2-7-5-6-12v-7l3-10 5-7z" fill="#08273C"/>
<path transform="translate(455,1110)" d="m0 0 11 2 8 5 6 10v11l-6 10-9 6-2 1h-10l-10-5-6-8-2-6v-9l4-8 7-6z" fill="#06292E"/>
<path transform="translate(988,862)" d="m0 0h10l9 4 5 4 4 7v13l-6 9-7 5-8 2-9-1-9-6-5-8-1-3v-11l5-8 9-6z" fill="#08273C"/>
<path transform="translate(607,1259)" d="m0 0h9l5 4 2 5-1 9-6 12-5 11-7 17-2 1-2-6 4-13 8-12 1-11v-3l-8-1-6 2-3 9-2 3h-2l-1 5-4 7-1 3h-2l-2 10-7 12-3 4-14 1h-16l-16-1h-19l-4-1-7 3-9 6-1 5 7 5 5 1 29 1v1h-44l-4-3-1-6 2-9 5-5 12-3 7-1h43l23 3 8-21 11-24 6-10 6-7z" fill="#0A171F"/>
<path transform="translate(456,1492)" d="m0 0h6l-1 5 18 1 41 3 45 7 25 6 20 6 21 9v1l-9-1-21-7-21-5-21-4-34-4-19-2-25-2-25-4-15-2-43 2-7 1-28 2-9 1-2 1-10 1h-16v-2h4v-2l27-4 22-2 19-2h16z" fill="#F5FAEA"/>
<path transform="translate(713,1328)" d="m0 0h9l8 4 6 8 1 4v8l-4 20-4 11-5-2-24-12-1-1v-10l2-13 4-8 5-7z" fill="#E3862D"/>
<path transform="translate(540,577)" d="m0 0 11 1 8 6 5 7 2 12-4 9-4 5-8 4-3 1h-7l-10-5-6-8-2-7 1-10 5-8 6-5z" fill="#06292F"/>
<path transform="translate(480,1347)" d="m0 0 17 1 40 1 22 2 24 4 23 6 17 6 5 3-1 3-8 4-3 3 1-5-13-3-28-5-73-10-15-4-8-4z" fill="#F5F4E5"/>
<path transform="translate(893,604)" d="m0 0h12l8 4 5 5 3 6v12l-3 6-8 7-5 2h-11l-7-3-5-5-4-7v-13l7-10z" fill="#08273C"/>
<path transform="translate(624,1424)" d="m0 0 6 1 7 9 3 5 16 11 12 6 14 3h13l14-3 8-2 11-5 4-2v4l-5 5h-2v2l-15 9-13 4-5 1h-17l-11-3-17-8-14-9-8-8-4-7-1-9z" fill="#EDAF98"/>
<path transform="translate(640,797)" d="m0 0h6l-4 3-11 6-14 12-8 7-16 16-9 11-14 18-9 14-10 18-6 14-10 39-2 4h-2l1-11 5-26 5-19 6-16 10-18 10-14 9-11 11-12 7-7 17-13 15-9z" fill="#F5F9E7"/>
<path transform="translate(354,1206)" d="m0 0h8l9 3 5 5 3 5 1 4v7l-4 10-4 5-6 3h-14l-6-4-6-7-2-4v-14l5-8 7-4z" fill="#06292E"/>
<path transform="translate(674,770)" d="m0 0h11l20 2 13 4 20 8h10l11-1h11l19 3 17 6 14 9 6 5 2 4-10-2-9-4-9-6-13-5-15-2h-20l-13 4-5-3-9-7-7-3-15-3-23-1h-24l-15 3-16 5-10 2-1-4 23-9 21-4z" fill="#F1EFF5"/>
<path transform="translate(301,1517)" d="m0 0h123l66 3 25 3 36 5 59 11 20 4 8 3 7 8 7 9 7 6 10 5v1l-7-1-11-7-1-3-4-2v-2l-4-2-5-6-3-2v-2l-16-1-27-4-15-4-9-2-14-2-12-4-9-1-8 1-11-2-3-1-14-1-6-2-13-2-2-1h-13l-16-1h-70l-52-1-11-1h-7l-5-1z" fill="#0A1821"/>
<path transform="translate(900,1051)" d="m0 0 4 2 3 6v2l2 1h-2l1 5v9l2 1 5 5 3 1v2h3v2l6 2 10 5 5 4 4 2v2l4 2 9 6 4 6 6 5 3 6v3l4 2 4 3v3l5 1 2 1 2 4h2l6 8 5 13 2 2v3l3 1-1 2h2v3h2l3 4v2l2 1 4 10 2 7 1 3h2l-1 6-2 1-3-3-15-29-12-18-9-12-9-10-7-9-8-7-4-5-11-9-15-11-13-8-14-8-1-1-1-16-1-11z" fill="#AD75E7"/>
<path transform="translate(305,789)" d="m0 0h13l8 3 5 6 2 6v8l-4 8-8 7-2 1h-12l-9-6-4-6-2-9 2-9 6-7z" fill="#06292F"/>
<path transform="translate(274,861)" d="m0 0h9l6 3 5 4 4 6 1 9-4 9-4 5-5 3-5 1h-7l-8-4-6-8-1-3v-11l3-6 7-6z" fill="#06292F"/>
<path transform="translate(892,1111)" d="m0 0h1v7l-10 17-5 8-1 9 8 13 11 16 9 12 16 21 7 10 11 16 7 10 14 26 4 16v13l-5-1-12-7-10-7-7-6 1-2 6 5 18 12 5 3h2v-9l-4-16-9-14-9-11-9-10-12-16-10-12-13-17-10-13-10-15-6-11 1-5 8-16 8-14 4-8z" fill="#0B8CCA"/>
<path transform="translate(441,1498)" d="m0 0 15 2 25 4 44 4 34 4 26 5 26 7 14 5 8 1 12 6 1 2-9-2-43-14-25-5-29-4-32-3-36-2-30-1h-56l-39 1-29 3-10 3-5-1 2-2 6-3 14-4h5l-4 1v2l26-2 2-1 18-2 19-1 7-1z" fill="#FBCBB0"/>
<path transform="translate(656,777)" d="m0 0h24l23 1 18 4 9 6 8 6 12-3 2-1h20l15 2 13 5 5 4 10 5 12 3v-3l15 15 3 4v2h2l1 4h2l6 10v2h2l6 12v5l2 1v4l2 1-1 2 2 1 1 2-1 2-4-1-12-17-10-15-9-11-14-14-13-9-15-8-12-4-12-2h-9l-12 3-9 3-8-6-15-6-12-4-10-2h-34l-18 4v-2l13-4z" fill="#F0F4E6"/>
<path transform="translate(991,589)" d="m0 0h9l7 4 6 7 2 5v7l-4 8-5 4-5 2h-12l-6-3-5-6-2-5v-9l3-6 7-6z" fill="#08273C"/>
<path transform="translate(951,1493)" d="m0 0h34l20 2 15 1 15 2 4 2v1h-10l-3-1h-22l-2-2-10-1v2l-48 1-10 2-35 3-18 3-24 3-25 4-27 6-36 12h-2v-2l20-8 25-8 26-6 21-4 69-9 20-2z" fill="#F8FFEB"/>
<path transform="translate(479,1477)" d="m0 0h15l6 3 6 1 11 3h8l1 2-2 1-28 2-23 1-62 5-8 1-5-2v-2l8-1 2 1v-2l8-4 5-3 24-3 23-2z" fill="#062A2F"/>
<path transform="translate(753,1176)" d="m0 0h2l3 21v5l-13 2h-17l-13-4-11-8-4-3v-2h-2l-1-3 3-1h17l19-3 15-3z" fill="#ECAE9A"/>
<path transform="translate(213,915)" d="m0 0 4 2 1 11v22l-1 3v10l3 30 2 30-1 27-2-1-2-8h-2l-2-22-3-30v-5h-2l-1-2v-54l1-6 3-3z" fill="#F5FAEA"/>
<path transform="translate(438,1043)" d="m0 0h7l7 3 5 6 2 9-3 10-7 6-2 1h-12l-6-4-4-6-1-9 3-8 5-5z" fill="#06292E"/>
<path transform="translate(290,1360)" d="m0 0h19l9 1 12 2 9 3v2h2v2h-12l-13-1-29 2-27 7-16 5-5 1h-8l-3-3 6-2 1-3 10-4 11-4 13-4 13-3z" fill="#EEF1E7"/>
<path transform="translate(667,1191)" d="m0 0 3 3 8 11 7 6 13 8 8 4 13 5 6 1-1 2h-5v63l-1 3h2v2l-14 4-9 5-10 9-7 10-4 12-2 12h-1v-12l4-13 5-8 9-9 5-4h2v-2l10-5 1-26-1-35 1-11-9-3-12-7-10-8-6-7-3-2-2-4z" fill="#E3862D"/>
<path transform="translate(416,1219)" d="m0 0 10 1 8 6 3 5 1 5-2 7-6 7-9 4-8-1-6-4-4-6-1-3v-8l4-8 6-4z" fill="#06292E"/>
<path transform="translate(869,1061)" d="m0 0 2 4v28l-5 16-8 16-9 13-7 9-4 5h-2l-1 8 1 6-4 2v2l-5 3h-4l-1-3v-9l8-12 7-14 4-5 5-4 9-14 6-10 3-10 2-19 2-7z" fill="#F3F7E9"/>
<path transform="translate(1037,1372)" d="m0 0 10 2 12 6 8 7 7 11 4 8 4 16v13l-4-1v-3l-3-1-3-7-6-10-10-14-15-15-6-3-1-4z" fill="#88CC4A"/>
<path transform="translate(1168,1517)" d="m0 0h42l5 3 2 4v6l-4 7-1 2-27 1-2 3h-8l-2-4 3-1 2-7-3-7-7-5z" fill="#C4C7CB"/>
<path transform="translate(861,946)" d="m0 0 6 3 5 6 4 6 2 2 1 5v10l-3 11-5 9-5 5h-2l-1 2h-10l-14 2-3-3 1-4 9-6 14-6 6-5 2-3v-12l-2-6v-2l-8-4v-2l-3-1v-2l-3-1z" fill="#EDAE9A"/>
<path transform="translate(661,1387)" d="m0 0h14l17 4 14 7 13 11 8 7 7 11v2h-2l-6-9-14-7-13-8-8-4-10-3-10-1h-9l-17 5-17 8-2 2 1-6 8-8 7-5 13-5z" fill="#F4F8EB"/>
<path transform="translate(377,891)" d="m0 0 4 2 3 7-3 5-8 8-3 5h-2l-2 5-7 11-9 19-6 12h-4v-13l4-14 5-12 7-10 2-4h2l2-4 7-8 5-6z" fill="#EFF6D4"/>
<path transform="translate(1240,1517)" d="m0 0h29l5 3 1 1v13l-5 5h-29l-5-5-2-3 1-7z" fill="#C9CCCE"/>
<path transform="translate(762,1007)" d="m0 0 6 1 4 4 1 9-4 11-7 6-4 2-9 1-9-2-5-3-4-7-1-5 3-5h7l6 4v2h6l4-6 4-10z" fill="#072B2E"/>
<path transform="translate(741,914)" d="m0 0h4l5 7 6 5v2l3 1 4 4 8 6 12 6 9 5 14 4 7 1h19l12-3-1 2h5l1 3-4 3-11 3-8 1h-9l-25-6-9-4-8-4-14-9-21-21-2-5z" fill="#EAAF9E"/>
<path transform="translate(123,1516)" d="m0 0 4 1 1 6 4 3-1 5-4 1v7h-15v4h-4l-2-4h-8l-5-4-1-10 2-5 3-3z" fill="#CBCFD0"/>
<path transform="translate(718,1105)" d="m0 0 10 1 6 4 4 7-1 9-6 7-9 3-8-1-2-1v-2h-2l-4-9 1-8 4-7z" fill="#07292E"/>
<path transform="translate(297,1162)" d="m0 0h7l6 3 5 7 1 9-6 9-5 3h-11l-6-5-3-8 1-7 5-8z" fill="#FEFEFE"/>
<path transform="translate(654,1041)" d="m0 0 5 1 3 5-1 9-4 6-6 5-7 2h-7l-8-3-6-7-2-5v-7l5-4 5 3 4 5 4 3 4-1 6-10z" fill="#062A2E"/>
<path transform="translate(376,1056)" d="m0 0h8l8 6 3 5v9l-4 8-7 4h-9l-5-4-3-5-1-10 3-7 5-5z" fill="#FCFDFA"/>
<path transform="translate(1107,1011)" d="m0 0h8l6 3 3 4 1 3v10l-4 6-4 3-11 1-7-4-4-7v-8l3-5 6-5z" fill="#FEFFFD"/>
<path transform="translate(952,815)" d="m0 0 8 1 4-1 11 4h7l1 2h-4v2l7 1 4 1v-4l3-2h3v-4l5 2 1 5-2 1-1 8-6 1v2l-8 2h-24l-2-5-4-4-2-6-4-5z" fill="#06292F"/>
<path transform="translate(444,1422)" d="m0 0 4 1 15 8 18 5 27 4 29 2 29 1h28l1-3v5l-2 3-22 1-11 1-19-1-28-1-9-2v-2h-10l-8-3-16-4-10-4-7-3v-2l-5-2z" fill="#0A1820"/>
<path transform="translate(956,1118)" d="m0 0 14 12 5 1 5 4v3l5 1 2 1 2 4h2l6 8 5 13 2 2v3l3 1-1 2h2v3h2l3 4v2l2 1 4 10 2 7 1 3h2l-1 6-2 1-3-3-15-29-12-18-9-12-9-10-7-9-8-7z" fill="#AB73E5"/>
<path transform="translate(853,1185)" d="m0 0h3v3h2v3l3 1 2 5 8 9 2 3v3l2 1 4 7v2l4 2 2 3v3l3 1 1 3 3 2v3l3 1v3l3 1 1 3 4 3 1 3 5 4 2 4 5 5v2l3 1 4 5 3 3-1 3-9-7-21-21-11-14-8-10-7-13-7-9-2-8-3-1-2-6h-2z" fill="#DDEDD5"/>
<path transform="translate(566,832)" d="m0 0 2 1-13 16-9 15-11 21-10 26-8 25-3 12-3 7-1 5-2-3 2-19 3-16 1 2h2l3-9 3-8 9-26 6-10 4-7 5-14 8-9 7-6z" fill="#F3F7D6"/>
<path transform="translate(883,536)" d="m0 0h3v3h2l2 5 4-1 5-3 7 2 4 6-3 7v2l-7 1-5-5 1 3 4 6 8 4 1-2 2 1v-2h2v-2l5-4 2 3-5 6-9 4h-9l-6-4-6-9-3-5z" fill="#08273C"/>
<path transform="translate(958,536)" d="m0 0 5 2 8 4 14 11 5 4v2l5 2 11 8 17 17v2l3 1 5 6v2l4 2 10 11 3 5 7 7v2h2l14 16 7 10 4 4 3 6 8 10 4 7 6 9 9 16 5 7 4 7v3h-2l-8-14-15-24-8-12-12-17-8-10-11-13-12-13-9-11-9-10-14-14-2-1v-2l-4-2-11-10-14-11-17-13-7-5z" fill="#08273C"/>
<path transform="translate(1079,749)" d="m0 0 10 2 3 4-2 11-9 9-6 5-5 6-6 3h-2l-1 3-6-1 2-6 7-9h2v-3h2l2-4 5-5 1-8 2-6z" fill="#06292F"/>
<path transform="translate(906,685)" d="m0 0 4 1-1 8-1 5-6 2-2 9-4 6-5 5 4 1-8 5-3 9h-3l-1 3h-2l-1 3-9-6-2-4 3-1 1-4h2v-5l12-3 3-2h3l2-4 3-10 4-3 2-11 4-2z" fill="#06292F"/>
<path transform="translate(795,1115)" d="m0 0 3 4-1 8-3 12-2 15-1 39-6 2-2-22v-13l3-24 2-3 5-11z" fill="#ECAE99"/>
<path transform="translate(643,1490)" d="m0 0 9 3 15 3 3 1 15 1v22h-4l-11-9-10-6-20-9 3-1h3l2-1-5-3z" fill="#EDF0E8"/>
<path transform="translate(893,1109)" d="m0 0 5 1v2h3v2l4 1 3 2v2l4 1 7 6 6 3 15 15v2l4 2 9 11 2 3v4h-5l-12-13-20-20-11-8-10-9-3-2z" fill="#EAF3D6"/>
<path transform="translate(153,1516)" d="m0 0 13 1 13 7-1 4-4-1 1 1v6l-5 5h-12l-10-8-1-3 3-5h2v-6z" fill="#CDD2D1"/>
<path transform="translate(994,865)" d="m0 0 8 1-3 3v2l6 1h4v3l5 2 2 2v11l-6 9-5 3h-5l-2-5-3 4-7-1 1-2h3v-2l5-1 2-4 2-8-1-9-7-1-3-3 5-2 1-2z" fill="#06292F"/>
<path transform="translate(756,1461)" d="m0 0 1 2-6 12-8 11-8 8-5 6-8 3h-2l-1 10-2 5-1-3 5-24 4-5h2l1-3 5-3h3l1-3 5-3h2l1-3 6-5h3l1-4z" fill="#C2C1CD"/>
<path transform="translate(886,835)" d="m0 0 4 2 2 5 4 2 2 4 5 9 2 9 2 4 2 9 1 2-1 5 3 6v4h2v9l-5 3-2-3-5-25-7-21-9-20z" fill="#AC74E6"/>
<path transform="translate(991,946)" d="m0 0 3 3 2 5v10l-4 8-8 6-6 3-11-2-4-3-2-4 1-4 8 3 7-1 7-3 1-3v-12l-3-1 1-2 7 2z" fill="#06292F"/>
<path transform="translate(301,1517)" d="m0 0h123l42 2 9 1v1l-13 1-16-1h-70l-52-1-11-1h-7l-5-1z" fill="#0B161C"/>
<path transform="translate(380,1155)" d="m0 0 4 1-1 3 23 1 5 3 4 5v9l-4 6-11 3-12 1-22-3-10-3 1-3h5l5 2 10 1 18-2 9-2 3-3 1-8v-3l-7-1-20-1-2-4z" fill="#F3F7E7"/>
<path transform="translate(1009,1486)" d="m0 0 20 2 24 5 8 2-1 2h-4l-1 4-11-1-27-3-13-1-6-2v-1l11-2-1-4z" fill="#092A38"/>
<path transform="translate(920,1521)" d="m0 0h9l-3 2-31 3-24 3-19 3-24 4-26 5-26 3-11 3v-3l20-4 44-8 31-5 20-3 30-2z" fill="#0A1921"/>
<path transform="translate(860,459)" d="m0 0h17l5 3 3 6v6l-1 2-8-1-3-2-12-1-4-3-6-1 1-4 5-4z" fill="#0B181F"/>
<path transform="translate(491,1506)" d="m0 0h15l38 4 25 4 24 5 18 5 14 5 8 1 12 6 1 2-9-2-43-14-25-5-29-4-32-3-36-2v-1z" fill="#F8C5AA"/>
<path transform="translate(771,755)" d="m0 0 12 1 20 6 18 8 12 7 24 18 7 7 5 7-3 1-6-7-8-7-6-4v-2l-3-1-2-3-7-3-16-9-13-6-1-2-7-2-4-2-6-1v-2h-13l-3-2z" fill="#08273B"/>
<path transform="translate(905,995)" d="m0 0 2 4-2 9-1 5-4 1-2 4-3 10v6l3 8h2l1 5h-3l-3-1-9-17-3-4 2-4 3-3h2l2-4 8-11 3-7z" fill="#AD75E6"/>
<path transform="translate(272,971)" d="m0 0h11l20 3 6 2 3 2 7 14v5l-4-2-15-11-12-7-9-3-7-1-1 4v-5z" fill="#5BA41E"/>
<path transform="translate(655,1178)" d="m0 0h8l2 4 5 2 6 7 6 9 10 8v2l4 2 8 6-1 3-5-1-16-10-7-7-9-14-3-9-8-1z" fill="#0A171F"/>
<path transform="translate(382,1302)" d="m0 0 18 1 12 4v5l-20-3h-13l-11 3-11 5h-2l-1 3-1-1v-5h2v-2l10-6 9-3z" fill="#EBF0D5"/>
<path transform="translate(828,822)" d="m0 0 4 2 9 7v2l4 2 1 3 8 4 2 3v3l5 1 3 6v5l2 1v4l2 1-1 2 2 1 1 2-1 2-4-1-12-17-10-15-9-11z" fill="#F1F7D7"/>
<path transform="translate(951,1493)" d="m0 0h34l20 2 15 1 15 2 4 2v1h-10l-3-1h-22l-2-2-10-1v2l-8-2-2 1h-18l-9-1-16-1v-1z" fill="#F2F5E9"/>
<path transform="translate(1107,1206)" d="m0 0 2 1-1 4-4 5-3 6-4 5-4 7-18 24h-2l-1 5-4 5-9 7-5 6-8 7-5 1h-2v-11l2-4 1 10 1 2 4-2 9-9 7-8 9-11 12-16 12-17z" fill="#08273B"/>
<path transform="translate(915,802)" d="m0 0 6 1v2l10 4v8l-1 3 7 2 1 2-7-1-7 1v-2l-5-2-12-9-4-6 3-1 5 3 3 1 5 1v-4l-4-2z" fill="#06292F"/>
<path transform="translate(504,1357)" d="m0 0 13 1 66 9 32 6 3 3-4 6-8 9-8 14-4 13h-1v-9l5-11 6-10 4-4 4-5 1-3-38-8-24-3h-6l-7-2-12-1-17-3-5-1z" fill="#E28730"/>
<path transform="translate(713,1328)" d="m0 0h9l8 4-1 2-2-1-11 1-5 5-4 11-1 4-1 15-4 1-2-2v-10l2-13 4-8 5-7z" fill="#EFEDDE"/>
<path transform="translate(717,1299)" d="m0 0 4 1-2 3-8 3-12 7-10 9-8 9-2 10-3 8h-1v-10l4-12 7-10 8-8 10-6 8-3z" fill="#0B171E"/>
<path transform="translate(805,1082)" d="m0 0h2l3 7-2 1-3 7-4 11-3 11-2 2-1-3-6 17h-1v-8l4-15 7-18 4-8z" fill="#EBC1B8"/>
<path transform="translate(440,1356)" d="m0 0h1l-1 11-1 7v18l4 15 2 6 3 5 6 5 2 3 9 4 16 5v1l-8-1-12-4-16-9-5-4-1-8-3-12-1-6 1-17z" fill="#E2862D"/>
<path transform="translate(374,1491)" d="m0 0h11v3 3l-16 2-20 2-6 1-7-1v-4l2-1 18-2h12v-2z" fill="#0B181D"/>
<path transform="translate(954,1539)" d="m0 0h96l32 1v1l-121 1-20 2h-21v-1z" fill="#09273D"/>
<path transform="translate(710,669)" d="m0 0 10 6 13 4 9 3 3 2-4 1-3 1-6 1v6h2l1 3-2 3h-4l-1-5-5-3-1-4 5-3-9-4-6-5v-3h-2z" fill="#08273C"/>
<path transform="translate(719,1229)" d="m0 0h6l-1 2h-5v63l-1 3h2v2l-8 2-4-1 7-2v-62l3-6z" fill="#B6AC71"/>
<path transform="translate(940,1107)" d="m0 0 4 1 12 10 7 8 7 6 7 9 11 13 9 13v2h-3l-7-9-7-10-5-5-2-4h-2v-2h-2l-4-6v-2l-4-1v-2h-2l-2-5-4-2-1-4h-2l-1-2-4-2-2-2-1-2h-2z" fill="#08273A"/>
<path transform="translate(565,1080)" d="m0 0 6 1v2l3 1 14 19 15 15 27 18-1 2-12-6-13-9-13-12-5-4-8-11-4-6v-2h-2l-2-4-7-1v-2z" fill="#0D1E21"/>
<path transform="translate(845,1483)" d="m0 0h14l1 1h5v-1h45l-8 4-58 1-5-1 2-3z" fill="#08273C"/>
<path transform="translate(592,1418)" d="m0 0h1v25l-4 1h-23l-47-2-11-1v-1h57l25-1v-12z" fill="#D68D37"/>
<path transform="translate(541,907)" d="m0 0 7 1-5 15-8 32-2 4h-2l1-11 5-26z" fill="#F4F8D6"/>
<path transform="translate(608,1150)" d="m0 0 6 2 12 8v2l4 1 9 5 1 3 2 1v2l-9-3-17-9-13-8 1-3z" fill="#0A181E"/>
<path transform="translate(857,1510)" d="m0 0m-4 1 10 1v1l-31 4-28 6-17 5-28 10-11 5-2-1 8-6 7-3 6-2v2l28-10 22-6 25-5z" fill="#F8C6AB"/>
<path transform="translate(535,1025)" d="m0 0h27v2l-24 1-5 5-4 8v17l8 11 2 5 1 2-4-2-8-10-4-11v-11l2-6 2-5h2l1-3h2v-2z" fill="#EAC4BD"/>
<path transform="translate(383,1337)" d="m0 0h2v2h2l5 10v7l-5 3-4-2-3-4-1-4-2-1-1-4 1-5z" fill="#59A31B"/>
<path transform="translate(652,1147)" d="m0 0 8 1 18 4 7 1h34l19-3v3l-6 2-16 2h-25l-18-2-20-6z" fill="#0C2229"/>
<path transform="translate(608,1257)" d="m0 0h9v2l4 1 4 8-2 4-3-9-4-3h-9l-8 5-6 9-8 16-9 20-3 8-2-3 5-14 5-13 9-16 10-11z" fill="#E4862D"/>
<path transform="translate(494,1478)" d="m0 0 9 2 14 4h8l1 2-2 1-28 2-1-2-9-2-5-2 1-4 4 1 1 2 7-2z" fill="#09273B"/>
<path transform="translate(300,1513)" d="m0 0 2 1-1 2 10-1 120 1 37 2 10 1v1h-12l-42-2-125-1v-3z" fill="#08273C"/>
<path transform="translate(986,1517)" d="m0 0h70l-1 2-15 1h-44l-8-1-18 1-5-1v-1z" fill="#0B161C"/>
<path transform="translate(853,1185)" d="m0 0h3v3h2v3l3 1 2 5 8 9 2 3v3l2 1 3 4v2h-3v6l-2-2-4-8-7-9-2-8-3-1-2-6h-2z" fill="#AAC4CF"/>
<path transform="translate(625,1043)" d="m0 0 5 2-1 10 2 6v2h2l1 2 7 1 10-2 4-2-2 4-9 3h-7l-8-3-6-7-2-5v-7z" fill="#0C1B1F"/>
<path transform="translate(332,1539)" d="m0 0h107l8 2v1l-114-1z" fill="#09273D"/>
<path transform="translate(339,1367)" d="m0 0 4 1 2 1v2l5 2v2l-8-1-18-2h-26l-23 4 1-3 11-3 29-2 13 1 12 1v-2z" fill="#EDF3D6"/>
<path transform="translate(910,616)" d="m0 0 7 1 4 5v6l-8 8-6 1v-4z" fill="#062A2F"/>
<path transform="translate(310,1520)" d="m0 0 9 2 13 1 8 1 1 1 12 1h9l5 1h15l4 2-2 1h-33l-18-2-22-5z" fill="#09273D"/>
<path transform="translate(513,1340)" d="m0 0h11l17 3 9 1 4 4v1l-11 1-2-1-10-1-1-2-14-1z" fill="#08273C"/>
<path transform="translate(732,790)" d="m0 0 7 4 13-4h20l15 2 13 5 6 5 1 3-5-2-15-7-12-3-7-1h-9l-12 3-9 3-6-5z" fill="#F2F6E2"/>
<path transform="translate(930,1134)" d="m0 0 4 2 11 11 7 8 9 13 2 4 2 6 4 5 1 5-5-1-7-13-5-5-2-3h4l-3-7-10-12-12-12z" fill="#C0C9CD"/>
<path transform="translate(850,1052)" d="m0 0h2l1 2v16l-1 13-1 2-4-1-4-5-7-18 2-1 6 12 4 2 2-17z" fill="#0D2021"/>
<path transform="translate(1204,904)" d="m0 0 3 2-1 87-2 2v-77l-1-13z" fill="#B29ECF"/>
<path transform="translate(1060,747)" d="m0 0h2l1 2h3v4l-2 5h-2l1 4-1 3 3 1v2l-11 5-3 6-1-4 2-4 4-3-1-4h4v-2l-4-2 1-2h-2l1-2h3l-1-5z" fill="#06292F"/>
<path transform="translate(740,1187)" d="m0 0 4 2-1 4-7 3h-16l-5-2 2-4 9-1h6z" fill="#E4862D"/>
<path transform="translate(607,1389)" d="m0 0h2l-1 6-4 8-4 9-4 8-2 16-2 2v-15l4-16 7-13z" fill="#0A171F"/>
<path transform="translate(201,1521)" d="m0 0 3 1-1 2h-2v5l-2 1 1 3h2l-1 4 7 3 25 5v1l-19-1-14-3-5-5v-8l2-5z" fill="#B9ACCE"/>
<path transform="translate(597,1329)" d="m0 0 33 12 27 12 8 4v2l-9-3-18-8-14-6-19-7-7-3z" fill="#0A1A23"/>
<path transform="translate(876,701)" d="m0 0h2v3h-2l5 5-1 3h-2l-1 3h-2v2h-2l-2 6-4-1-1 2-1-5 3-6h3l-1-2-1-4z" fill="#062930"/>
<path transform="translate(624,1493)" d="m0 0 8 1 4 1 5 1 4 4 5 2v4l-9-1-10-4-5-3v-2h-2z" fill="#08273C"/>
<path transform="translate(976,1191)" d="m0 0 4 4 2-1 3 3 2 1v2h2l5 9-1 2 3 1 1 5-2 3-1 3-7-14-5-5-6-10z" fill="#103B42"/>
<path transform="translate(225,831)" d="m0 0 4 2-4 23-3 3-4-1v-5l-1-2h2l1-5 3-13z" fill="#F9FFED"/>
<path transform="translate(719,1231)" d="m0 0h4l-2 7v56l-1 3h-2v-61z" fill="#9962D6"/>
<path transform="translate(297,1162)" d="m0 0h7l6 3 5 7 1 9-2 2v-7h-2l-4-8-2-1h-8l-5 3h-2l-2 4-2 9-2-3 1-7 5-8z" fill="#F1F6E3"/>
<path transform="translate(852,1043)" d="m0 0h1v7h2l2 3 2 7 1 11-1 7-2 1-2-5h-2l-1 2z" fill="#E7ADA5"/>
<path transform="translate(733,1019)" d="m0 0h7l2 1v3l-4 1-2 4 3 9h17l5-2h3v2l-6 3-9 1-9-2-5-3-4-7-1-5z" fill="#0F2120"/>
<path transform="translate(998,1484)" d="m0 0 11 1v5l3 2-11 2-4 1-12-1-2-2 1-1 8-1 1-2h2v-3z" fill="#072C2E"/>
<path transform="translate(1090,1275)" d="m0 0 5 1-1 4-8 11-12 12-2-1 1-2h2l2-4 1-1 2-9 7-6z" fill="#0D2A3D"/>
<path transform="translate(612,1287)" d="m0 0 4 1-10 24-3 6-3-6 4-13 6-9z" fill="#0D1F21"/>
<path transform="translate(383,900)" d="m0 0 3 3 1 3-1 2-8 3-11 15-9 13-6 12-1-3 11-21 6-9h2l2-5 10-10z" fill="#8DD051"/>
<path transform="translate(196,1410)" d="m0 0 6 1 1 1v6l-3 3-11 3-4-1v-3l8-7z" fill="#F7FDEB"/>
<path transform="translate(491,1506)" d="m0 0h15l30 3 3 1v2l-18-1-27-2-22-1v-1z" fill="#F8C4AA"/>
<path transform="translate(992,1494)" d="m0 0 18 1 16 2 9 1 4 2v1h-10l-3-1h-22l-2-2-10-1v2l-3-1z" fill="#E3E1D6"/>
<path transform="translate(235,1547)" d="m0 0h16l35 7 16 3v1l-13-1-25-5-22-1-7-2z" fill="#F8FEED"/>
<path transform="translate(731,1498)" d="m0 0 1 2-3 5-1 4-1 1 2 2h-3v2l-4 1-2 4-4 1 4-17 10-4z" fill="#F6FBEC"/>
<path transform="translate(504,1357)" d="m0 0 13 1 66 9 11 3-4 1-15-3-24-3h-6l-7-2-12-1-17-3-5-1z" fill="#E4862D"/>
<path transform="translate(511,1319)" d="m0 0h26l12 1h19l2-1 1 5-3 1-21-3h-49l4-2z" fill="#E59149"/>
<path transform="translate(736,901)" d="m0 0 3 1 2 6h2l4 6 2 4 4 2 8 8 9 6 7 7-6-1-12-9-3-3v-2l-4-2v-2l-3-1-10-13-3-5z" fill="#0F2425"/>
<path transform="translate(236,1117)" d="m0 0 3 1 4 9 2 9 4 9 5 14-1 3-12-27v-4l-2-1v-2l-2-1-3-8z" fill="#E3CABF"/>
<path transform="translate(325,1504)" d="m0 0h5l-4 1v2l24-1-3 2-29 3-10 3-5-1 2-2 6-3z" fill="#F3C9B3"/>
<path transform="translate(863,456)" d="m0 0h9l8 3-3 1h-17l-5 3-3 2-1 3h6l3 2v2h-8l-5-1 1-5 5-6z" fill="#D2CBDC"/>
<path transform="translate(938,1496)" d="m0 0h21l5 1h18l3-1 4 1v2l-45 1-10 1 2-4z" fill="#F7FAD6"/>
<path transform="translate(608,459)" d="m0 0 10 1 1 3-7 4h-15l-2-3 3-2 7-2z" fill="#F4F8EA"/>
<path transform="translate(732,1335)" d="m0 0 4 2 3 8v19l-4 12-4 3 1-7 4-20v-8l-3-7z" fill="#0A1922"/>
<path transform="translate(615,1289)" d="m0 0 1 3-9 22-2 6 1 10 8 4-3 1-12-4-1-2 6-14 10-25z" fill="#E29A60"/>
<path transform="translate(763,1237)" d="m0 0h3l3 7 2 9 1 2h-2l2 5 3 7-2 1-4-4-6-19z" fill="#08273A"/>
<path transform="translate(640,797)" d="m0 0h6l-4 3-11 6-12 10h-1l-1-7 14-8z" fill="#F2F9D8"/>
<path transform="translate(699,695)" d="m0 0 5 2 4 2v2h-6l2 24v15l1 3-5 1 1-8v-15z" fill="#C4C4CC"/>
<path transform="translate(707,1344)" d="m0 0 1 2-2 8-1 15-4 1-2-2v-10l1-8 2 1 2-4h2z" fill="#EDE6D2"/>
<path transform="translate(437,1365)" d="m0 0h1l-1 10-1 17 3 15 2 9-4-2-5-7 2-8v-19z" fill="#F9C6A8"/>
<path transform="translate(718,1105)" d="m0 0 10 1 6 4 2 3-1 3v-2l-3-1-6-4-9 1-4 4-3 6-2-1v-7l5-5z" fill="#0E1E1F"/>
<path transform="translate(807,1536)" d="m0 0h5l-1 3-17 3-18 2-11 3v-3l20-4z" fill="#0A1923"/>
<path transform="translate(722,1364)" d="m0 0 5 2v9l2 1h-2l-1 4-6-1-4-4 3-3z" fill="#FB7D0A"/>
<path transform="translate(737,1150)" d="m0 0 1 3-6 2-16 2h-25l-4-2 30-1 10-2z" fill="#0C181B"/>
<path transform="translate(287,1183)" d="m0 0 10 5h8l7-2-2 4-5 3h-11l-6-5z" fill="#F0F6E2"/>
<path transform="translate(218,1504)" d="m0 0 11 6 7 3-3 3h-13z" fill="#0D1B20"/>
<path transform="translate(696,1305)" d="m0 0m-1 1 1 3-8 7-6 8-4 8-3 13-1 6h-1v-12l4-13 5-8 9-9z" fill="#E1872E"/>
<path transform="translate(951,1517)" d="m0 0h7l4 2-52 4-10 1h-10v-1l26-3z" fill="#08273A"/>
<path transform="translate(826,1064)" d="m0 0h2l1 12 1 3v9l-2 1-2-12h-2l-1 2-2-8v-5h3z" fill="#E6ABA2"/>
<path transform="translate(880,986)" d="m0 0 1 3-3 6-5 5-4 5-3 3h-6l1-4 5-2 6-7 4-8z" fill="#0A2B39"/>
<path transform="translate(558,1178)" d="m0 0 2 1-18 18-7 8-22 22 2-5 8-8 6-7 8-7 11-12z" fill="#E98831"/>
<path transform="translate(843,651)" d="m0 0 4 1 5 2 1 9-1 2h-3v2l-3-1-3-12z" fill="#062930"/>
<path transform="translate(954,1539)" d="m0 0 18 1v1l-31 3h-21v-1z" fill="#08273B"/>
<path transform="translate(847,1192)" d="m0 0 3 2-4 5h-2v2l-12 5-4-1 4-4 9-6 5-2z" fill="#9ABFD2"/>
<path transform="translate(390,1061)" d="m0 0 4 3 1 3v9l-4 8-7 4h-9l-2-2 10 1v-2l4-2 4-4v-8z" fill="#F0F7E4"/>
<path transform="translate(667,1191)" d="m0 0 3 3 8 11 7 6 13 8 12 6-1 2-16-8-13-9-11-11-2-4z" fill="#DF8D3B"/>
<path transform="translate(419,1484)" d="m0 0 3 4v3l-10 1-8 4-6-2v-2l8-1 2 1v-2l8-4z" fill="#09283C"/>
<path transform="translate(869,810)" d="m0 0 4 5 15 26 2 4-1 3-6-11-6-8-3-5-6-11z" fill="#08273B"/>
<path transform="translate(1030,1488)" d="m0 0 11 1 20 4-3-3 1-2 9 6 1 3-13-2-17-4-9-2z" fill="#AF97D0"/>
<path transform="translate(601,460)" d="m0 0h3v2l-8 2-4 4-2 1h-8l-1-1h-9l3-2 7-1 7-2z" fill="#D7D6D8"/>
<path transform="translate(976,871)" d="m0 0 2 2 1 3h3l-1 6-4 3-4-4-1 5h-1v-9l2-4z" fill="#06292F"/>
<path transform="translate(994,1219)" d="m0 0 6 2 2 5 4 9 1 6h2l1 5-2 1-2-7h-3l-2-6v-2l-6-9z" fill="#09273D"/>
<path transform="translate(1028,1525)" d="m0 0h19v2l-16 1h-30l4-2h16z" fill="#09273D"/>
<path transform="translate(990,1483)" d="m0 0 5 2-1 5-10 2-6 2 2-4-5-1v-1l9-1 2-1-2-2z" fill="#0A2A3A"/>
<path transform="translate(1007,605)" d="m0 0h6l1 6-1 2-7 4-2 1-2-1 1-4z" fill="#062A2F"/>
<path transform="translate(374,1491)" d="m0 0h11v3 2h-23l1-2h5v-2z" fill="#0A161C"/>
<path transform="translate(581,1093)" d="m0 0 6 5 6 8 8 8 5 2v2l4 2 3 2v2l2 1-5-1-10-8-14-14-5-7z" fill="#F7C3A9"/>
<path transform="translate(991,965)" d="m0 0h4l-2 5-5 5-5 3-3-2 1-4h3v-2h2l1-3z" fill="#08273B"/>
<path transform="translate(633,458)" d="m0 0h5l1 2-5 4-3 1h-7l-3-3 1-2-3-1z" fill="#F8FFEB"/>
<path transform="translate(732,790)" d="m0 0 7 4 13-4h20l2 2h-15l-12 3-9 3-6-5z" fill="#EEF4E3"/>
<path transform="translate(787,652)" d="m0 0h3l1 4-6 5-4 7-4-1v-5l4-5 5-2z" fill="#062932"/>
<path transform="translate(930,1134)" d="m0 0 4 2 11 11 7 8 9 13 2 4h-3l-8-13-10-12-12-12z" fill="#0E97CF"/>
<path transform="translate(886,985)" d="m0 0h2l2 7-6 5-1 2h-2v2l-5 4-4 1 1-5 6-2 4-6 1-6 2-1z" fill="#08273C"/>
<path transform="translate(762,1007)" d="m0 0 6 1 4 4 1 9-2 2-3-8-1-2h-8l2-5z" fill="#0C1C21"/>
<path transform="translate(923,476)" d="m0 0 3 1 1 7v25l-3 3z" fill="#CDD1D1"/>
<path transform="translate(1211,1534)" d="m0 0h2l-1 5-27 1-2 3h-8l-1-3 6-2h29z" fill="#F3F5EC"/>
<path transform="translate(427,1487)" d="m0 0 3 1h3l12 1v3l-9 1h-9l-3-2v-2z" fill="#08273A"/>
<path transform="translate(313,1110)" d="m0 0 9 3 15 3 2 3-13-1-11-4z" fill="#EAEEDF"/>
<path transform="translate(793,1521)" d="m0 0 6 1-4 2-26 9h-2v-2l20-8z" fill="#F7FFDE"/>
<path transform="translate(297,1162)" d="m0 0h7l6 3 5 7 1 9-2 2v-7h-2l-4-8-3-3-11-1z" fill="#E8EBDC"/>
<path transform="translate(812,955)" d="m0 0h27v2l-9 2h-16l-6-2z" fill="#EEC6BD"/>
<path transform="translate(722,1333)" d="m0 0h7l6 5 1 7h-5l-1-4-2-1-1-3-5-2z" fill="#F87E10"/>
<path transform="translate(804,445)" d="m0 0h2l2 15 11 1-1 3-16-3v-5l2-3z" fill="#E7E6EA"/>
<path transform="translate(753,684)" d="m0 0 5 1 2 4-1 4-5 2-2-1-2-4 1-4z" fill="#09273D"/>
<path transform="translate(376,1489)" d="m0 0 3 1-5 2h-6v2l-20 2h-8v-1l11-2 5-1z" fill="#082A34"/>
<path transform="translate(845,1483)" d="m0 0h14l1 1 8 1v1h-12l-1 1-11 1-5-1 2-3z" fill="#09273D"/>
<path transform="translate(493,1321)" d="m0 0h4v2l-12 3-4 4-2 10 2 7-2 2-2-7v-10l5-7 6-3z" fill="#DC872C"/>
<path transform="translate(783,429)" d="m0 0h7l4 3 8 2 5 5v5l-3-1-2-6-1-1h-10l-3-4-5-2z" fill="#656F84"/>
<path transform="translate(202,1539)" d="m0 0 12 2 19 4v1l-19-1-9-3z" fill="#B7A9CF"/>
<path transform="translate(766,1531)" d="m0 0 1 2 5-1-2 2-20 8-4 1 5-5 10-5z" fill="#FAC9AE"/>
<path transform="translate(621,1528)" d="m0 0 12 2 12 6 1 2-9-2-15-5z" fill="#F9C8AD"/>
<path transform="translate(821,1076)" d="m0 0h2l2 12v7l-2-2-4-1 1-8-1-5h2z" fill="#092938"/>
<path transform="translate(526,1345)" d="m0 0 6 1v1l9 1 2 2-46-1v-1l28-1z" fill="#082A32"/>
<path transform="translate(401,1183)" d="m0 0h8l-4 2-17 2-17-2v-1z" fill="#EDE4CB"/>
<path transform="translate(460,1111)" d="m0 0 6 1 8 5 6 10v6l-2-1-4-9-4-6-10-4z" fill="#091A21"/>
<path transform="translate(345,1118)" d="m0 0h11l7 3v2l3 1-8-1-18-3v-1z" fill="#EEEDDC"/>
<path transform="translate(1027,1226)" d="m0 0 2 4 4 11-1 4-3-1-2-9-2-4-1-3z" fill="#08273B"/>
<path transform="translate(985,1431)" d="m0 0 4 1 7 2 3 4v2l3 1v2l-4-1-13-9z" fill="#08273A"/>
<path transform="translate(676,1388)" d="m0 0 9 1 11 4-1 2-8-1-12-3z" fill="#EDEAF2"/>
<path transform="translate(705,1372)" d="m0 0 5 1 14 7 5 3-1 3-15-8-8-4z" fill="#0A1A24"/>
<path transform="translate(731,701)" d="m0 0h4l1 2 7 2-3 2-13-1-4-1 1-3h6z" fill="#08273B"/>
<path transform="translate(381,1495)" d="m0 0 4 2-16 2-20 1 4-2h8v-2z" fill="#092C34"/>
<path transform="translate(604,1390)" d="m0 0 1 3-6 10-4 10-1 5h-1v-9l5-11 4-6z" fill="#DD872D"/>
<path transform="translate(438,1043)" d="m0 0h7l7 3 3 3-1 2-2-1v-2l-18-1-1-2z" fill="#091A20"/>
<path transform="translate(222,833)" d="m0 0 1 3-2 10-2 5h-2l-1 4-1-2 2-10 3-9z" fill="#DADCD0"/>
<path transform="translate(791,621)" d="m0 0 4 1v2l19 3v1h-19l-8 1 4-5z" fill="#9962D6"/>
<path transform="translate(670,1497)" d="m0 0 15 1v22h-4l2-1 1-19h-9l-5-1z" fill="#B5A4CF"/>
<path transform="translate(945,522)" d="m0 0 2 2 1 7-9 6-6 3-3-1 11-6 2-3z" fill="#DBDAE0"/>
<path transform="translate(627,1133)" d="m0 0 6 2 12 6 13 5v1l-7-1-19-8-5-3z" fill="#F4C4AD"/>
<path transform="translate(397,1122)" d="m0 0h2l1 10-7 14h-3l4-10 3-3z" fill="#EAEFE3"/>
<path transform="translate(947,816)" d="m0 0 5 5-1 3-7 1-6-3 2-3h5z" fill="#062A2F"/>
<path transform="translate(983,808)" d="m0 0 1 2 7 1 3 2-4 2-7-3-7 2-8-2v-1l6-1h9z" fill="#062A2F"/>
<path transform="translate(656,777)" d="m0 0h24v1l-21 2-18 4v-2l13-4z" fill="#F3FADE"/>
<path transform="translate(710,1576)" d="m0 0h21v1l-17 2h-17v-1z" fill="#0A1920"/>
<path transform="translate(654,1041)" d="m0 0 5 1 2 3-2 3-11-1 1-4z" fill="#0D1D1F"/>
<path transform="translate(918,1479)" d="m0 0h2v2l3 1h19v2h-29l-1-4 5 1 2 1z" fill="#09273D"/>
<path transform="translate(716,1329)" d="m0 0h8l6 3-1 2-2-1-11 1-6 1 4-5z" fill="#F4E3D0"/>
<path transform="translate(323,1086)" d="m0 0h9l11 4v1h-6l-2-1-17-1 2-2z" fill="#E4E9DD"/>
<path transform="translate(732,752)" d="m0 0 9 2 3 1h7l7-1h9l2 2-26 1-10-2z" fill="#09273D"/>
<path transform="translate(444,1422)" d="m0 0 4 1 15 8 6 2-1 2-7-1-8-4v-2l-5-2z" fill="#0A1A23"/>
<path transform="translate(1033,1245)" d="m0 0 2 3 3 11-1 5-4-5-1-10z" fill="#08273B"/>
<path transform="translate(884,465)" d="m0 0 3 3 1 4v9l-3-1v-2h-6l-2-2h7z" fill="#DACFE6"/>
<path transform="translate(679,1156)" d="m0 0 25 2 3 3h-9l-4-1h-9l-6-3z" fill="#08273C"/>
<path transform="translate(956,1496)" d="m0 0 8 1h18l3-1 4 1v2h-33z" fill="#F7FFDA"/>
<path transform="translate(287,1370)" d="m0 0h8l3 2-23 4 1-3z" fill="#F0F6D6"/>
<path transform="translate(705,1350)" d="m0 0 1 4-1 15-4 1v-3l1-6 1-8z" fill="#FACAAF"/>
<path transform="translate(679,1331)" d="m0 0h1v8l-4 10h-1v-10l2-7z" fill="#0A1820"/>
<path transform="translate(1047,1495)" d="m0 0 13 1-4 1-1 4-11-1 1-3z" fill="#0E3137"/>
<path transform="translate(806,1033)" d="m0 0 2 1-1 2h-2l-2 4-10 12-1-3 1-3h2l2-4 5-5z" fill="#0B1D23"/>
<path transform="translate(345,1488)" d="m0 0 2 1-4 4 9-1-1 2-11 2h-5l4-5z" fill="#BDABD4"/>
<path transform="translate(1090,1283)" d="m0 0v3l-11 12-5 5-2-1 1-2h2l2-4z" fill="#CDC0DE"/>
<path transform="translate(382,1103)" d="m0 0 5 2 5 5 6 9-1 2-3-3-4-6-8-7z" fill="#E3E8DE"/>
<path transform="translate(861,944)" d="m0 0 6 2v2l4 2 5 8v5l-3-4-5-8-7-5z" fill="#E9BEBA"/>
<path transform="translate(761,1549)" d="m0 0h2l-2 5-7 8h-2l1-4 5-7z" fill="#0A1821"/>
<path transform="translate(999,1117)" d="m0 0 10 6 11 3 3 2-9-1-9-3-6-4z" fill="#BA9FDB"/>
<path transform="translate(910,1543)" d="m0 0h9l-4 3-9 1h-11l3-2z" fill="#082739"/>
<path transform="translate(407,1571)" d="m0 0 16 1 3 1 14 1v1h-15l-15-1z" fill="#F9FFED"/>
<path transform="translate(201,1521)" d="m0 0 3 1-1 2h-2v5l-2 1-2 4-2-1 1-7z" fill="#B2AAC4"/>
<path transform="translate(882,1484)" d="m0 0h4v2l4 1h-35l1-2 26 1z" fill="#062A2F"/>
<path transform="translate(655,1352)" d="m0 0 5 1 8 4 5-5-1 9-5-2-12-6z" fill="#DA8D40"/>
<path transform="translate(597,1329)" d="m0 0 11 4 10 4 1 2-9-2-12-5z" fill="#0A1821"/>
<path transform="translate(745,1203)" d="m0 0 6 1-4 2h-19l-2-2z" fill="#0C1C22"/>
<path transform="translate(761,1035)" d="m0 0h3v2l-6 3-9 1-6-1 2-2 15-2z" fill="#0F2323"/>
<path transform="translate(1015,888)" d="m0 0 1 2-6 9-4 2-2-2h2l1-4 6-4z" fill="#09273D"/>
<path transform="translate(270,708)" d="m0 0 4 3-2 5-3 3h-3l1-7z" fill="#F9FEEA"/>
<path transform="translate(352,554)" d="m0 0h1l-1 7h-2v2h-3v2l-3 1-1-3z" fill="#0E293D"/>
<path transform="translate(660,1504)" d="m0 0 6 2 9 2-1 2 4 6-4-2-11-7z" fill="#BAB0CE"/>
<path transform="translate(1058,1488)" d="m0 0 8 4 3 3v2l-8-1-4-3h4l-3-3z" fill="#BBADD0"/>
<path transform="translate(719,1411)" d="m0 0 4 1 6 7 5 8v2h-2l-6-9-7-8z" fill="#E6DDE9"/>
<path transform="translate(480,1347)" d="m0 0 17 1v1l-7 1 2 1v2l2 1-9-2-5-3z" fill="#E2BFBE"/>
<path transform="translate(245,1139)" d="m0 0h2l7 20-1 3-8-18z" fill="#E9CFBE"/>
<path transform="translate(345,962)" d="m0 0 2 4 3 1-2 6-2 2-5-10 3-1z" fill="#7AC03C"/>
<path transform="translate(1068,739)" d="m0 0 9 1-3 3h-2v2l-6-1v-3z" fill="#062930"/>
<path transform="translate(391,1079)" d="m0 0h2l-2 5-7 4h-9l-2-2 10 1v-2l4-2z" fill="#E2E7DB"/>
<path transform="translate(887,1033)" d="m0 0 3 1 6 12v3h-2l-2-7h-3z" fill="#08273B"/>
<path transform="translate(457,1427)" d="m0 0 7 2 7 3 10 3v1l-8-1-12-4-4-2z" fill="#E58B3A"/>
<path transform="translate(596,1149)" d="m0 0 4 2 6 4-1 2-7-4-8 2v2l-5 1 4-4 5-3h2z" fill="#E18F41"/>
<path transform="translate(653,1062)" d="m0 0h2l-2 4-9 3h-7l4-3 10-2z" fill="#0A1B24"/>
<path transform="translate(1204,904)" d="m0 0 3 2v11l-3 1-1-13z" fill="#CDD4C8"/>
<path transform="translate(1128,739)" d="m0 0 3 1 6 15-1 3-2-3-6-14z" fill="#08273A"/>
<path transform="translate(311,1508)" d="m0 0 7 2-2 2-8 2-5-1 2-2z" fill="#E4A998"/>
<path transform="translate(417,1220)" d="m0 0h9l7 5-1 3-3-3-12-4z" fill="#091A1F"/>
<path transform="translate(533,1149)" d="m0 0 2 1-13 12-6 4 2-4 11-10z" fill="#091D23"/>
<path transform="translate(737,1150)" d="m0 0 1 3-6 2h-9l-3-2z" fill="#0E2123"/>
<path transform="translate(800,1102)" d="m0 0 2 1-2 10-3 8h-1l1-9z" fill="#BEAED5"/>
<path transform="translate(849,741)" d="m0 0 4 1 3 3-5 3h-2v-2l-3-1z" fill="#062A2F"/>
<path transform="translate(719,1512)" d="m0 0h6l-1 3h-2l-2 4-4 1z" fill="#E8E1F0"/>
<path transform="translate(1039,1491)" d="m0 0 10 1 11 3v1h-9l-12-4z" fill="#06292F"/>
<path transform="translate(466,1271)" d="m0 0 1 3-4 8h-3l1-6z" fill="#F7F6F8"/>
<path transform="translate(973,1136)" d="m0 0 4 2 2 4h2v2l3 1 2 4h-3l-10-11z" fill="#9962D6"/>
<path transform="translate(959,941)" d="m0 0h5v4h-2v2l-4 1-3-2 1-3h3z" fill="#06292F"/>
<path transform="translate(692,687)" d="m0 0 4 1 2 4 6 2 3 4-4-1-6-4-5-4z" fill="#082739"/>
<path transform="translate(1085,1516)" d="m0 0h16l3 2-6 1-2-1-9 1-4-2z" fill="#082739"/>
<path transform="translate(812,1479)" d="m0 0h12l-2 2-15 2-2-2z" fill="#0A1920"/>
<path transform="translate(713,1328)" d="m0 0h9v1l-8 2-4 5h-2v2h-2l2-5z" fill="#E0DEE5"/>
<path transform="translate(732,809)" d="m0 0h7l2 2-10 4-1-4z" fill="#0A171D"/>
<path transform="translate(860,728)" d="m0 0h4l1 3-2 5-5-1z" fill="#062A2F"/>
<path transform="translate(1040,1274)" d="m0 0h1l1 10 3 3v2h-6v-11z" fill="#09273D"/>
<path transform="translate(758,1200)" d="m0 0 2 1-3 5-8 1 1-2-2-2 10-1z" fill="#082636"/>
<path transform="translate(345,1152)" d="m0 0 2 1-6 6-1 12-2-3v-7l4-7z" fill="#EEE7D5"/>
<path transform="translate(603,1115)" d="m0 0 3 1v2l4 2 3 2v2l2 1-5-1-8-6z" fill="#FACAAF"/>
<path transform="translate(569,1017)" d="m0 0h5l-6 6h-7l5-5z" fill="#09273D"/>
<path transform="translate(732,790)" d="m0 0 7 4 6-1 1 2-8 3-6-5z" fill="#F1F7E5"/>
<path transform="translate(783,432)" d="m0 0 7 1 1 2 4 2-4 2v-2h-8l-1-3z" fill="#09273D"/>
<path transform="translate(235,1547)" d="m0 0 10 1 8 2v1h-11l-7-2z" fill="#FDFDFC"/>
<path transform="translate(779,1541)" d="m0 0 4 1-7 2-11 3v-3z" fill="#091C26"/>
<path transform="translate(1061,1501)" d="m0 0 7 2v1h-15l-6-1v-1h8z" fill="#E9EAD4"/>
<path transform="translate(649,778)" d="m0 0h5l-2 2-11 2v2h-6l3-3z" fill="#F8FFEB"/>
<path transform="translate(636,427)" d="m0 0 2 1-3 3-12 1 1-3z" fill="#1E3250"/>
<path transform="translate(1179,1538)" d="m0 0 5 2-1 3h-8l-1-3z" fill="#FCFDFA"/>
<path transform="translate(1072,1520)" d="m0 0h2v2l3 1-12 2h-5v-2l11-2z" fill="#08273C"/>
<path transform="translate(216,1499)" d="m0 0 9 6 1 3-5-1-5-5z" fill="#CABFDA"/>
<path transform="translate(540,1178)" d="m0 0 1 3-7 6-5 5h-3l9-9z" fill="#14261B"/>
<path transform="translate(893,1109)" d="m0 0 5 1v2h3l-1 2-2-1v2h2v2l2 1h-3l-5-4z" fill="#B2BECC"/>
<path transform="translate(608,911)" d="m0 0 2 1-9 10-6 4 2-4z" fill="#081E23"/>
<path transform="translate(824,457)" d="m0 0 1 3 3-3 2 4-5 1v2h-5v-3l4-1z" fill="#172C42"/>
<path transform="translate(148,1525)" d="m0 0h3l3 8v3l-6-5-1-3z" fill="#F0F5EA"/>
<path transform="translate(1272,1519)" d="m0 0 3 2v13l-3 4h-2v-2l2-1 2-12h-2z" fill="#F9FFED"/>
<path transform="translate(992,1494)" d="m0 0 12 1-1 2h-11v2l-3-1z" fill="#DAD5D4"/>
<path transform="translate(479,1330)" d="m0 0 1 3-1 7 2 7-2 2-2-7v-10z" fill="#D7892E"/>
<path transform="translate(911,1259)" d="m0 0 5 2 3 2v2l3 1-1 2-7-3z" fill="#082D44"/>
<path transform="translate(952,1158)" d="m0 0 4 2 7 12h-3z" fill="#219AA2"/>
<path transform="translate(241,1118)" d="m0 0 2 4 3 12 2 5h-2l-2-3-2-9-1-2z" fill="#F9FFED"/>
<path transform="translate(202,1539)" d="m0 0 12 2 2 2-2 2-9-3z" fill="#585480"/>
<path transform="translate(539,1510)" d="m0 0 12 1 4 2h-15z" fill="#FACAAF"/>
<path transform="translate(529,1509)" d="m0 0h7l3 1v2l-18-1v-1z" fill="#F6C2A7"/>
<path transform="translate(805,1082)" d="m0 0h2l3 7-6 1-1-4z" fill="#EAD8D2"/>
<path transform="translate(901,992)" d="m0 0 1 2h2l-3 9h-2v-8z" fill="#08273C"/>
<path transform="translate(642,457)" d="m0 0h12l1 2-2 1h-9v-2z" fill="#F8FFEC"/>
<path transform="translate(1026,1497)" d="m0 0 9 1 4 2v1h-10l-1-3z" fill="#E0DDD5"/>
<path transform="translate(728,890)" d="m0 0 3 1 1 4-3 3-4-1z" fill="#F0CCBA"/>
<path transform="translate(1200,871)" d="m0 0 3 3-1 17h-1l-1-16z" fill="#BDB6C8"/>
<path transform="translate(690,789)" d="m0 0h9l4 2v2l-6-1-7-1z" fill="#081E23"/>
<path transform="translate(838,676)" d="m0 0 1 2 4 1v3h-8l2-5z" fill="#06292F"/>
<path transform="translate(767,428)" d="m0 0 14 1-4 3-10-1z" fill="#2E3F58"/>
<path transform="translate(860,1527)" d="m0 0h7l-1 3h-9l-5-1v-1z" fill="#091D27"/>
<path transform="translate(431,1408)" d="m0 0h3l6 8v2h2l-1 2-8-7z" fill="#0F2322"/>
<path transform="translate(1056,1275)" d="m0 0h2l-1 3-5 4-5 5-2 1 2-4z" fill="#072836"/>
<path transform="translate(698,1183)" d="m0 0 8 1-2 4-6-1-1-3z" fill="#EBBFBC"/>
<path transform="translate(367,1122)" d="m0 0 5 1 1 1v9l-2 2v-8l-5-2z" fill="#F4F0D9"/>
<path transform="translate(1074,1503)" d="m0 0 5 2 2 2h-9l-3-3z" fill="#EAEBD8"/>
<path transform="translate(587,1356)" d="m0 0 9 2-3 2-7 1v-4z" fill="#EEE9F4"/>
<path transform="translate(587,1142)" d="m0 0 6 1 6 4 3 5-4-2-6-5-5-2z" fill="#0D1E21"/>
<path transform="translate(736,901)" d="m0 0 3 1 2 6h2l2 6-5-5-4-6z" fill="#091D27"/>
<path transform="translate(779,660)" d="m0 0 1 3 4-1-3 6-4-1v-5z" fill="#08273C"/>
<path transform="translate(217,1387)" d="m0 0h2l-2 4-2 1z" fill="#E9ECD7"/>
<path transform="translate(502,1230)" d="m0 0h5l-1 5-4 1-1-5z" fill="#F9FBE9"/>
<path transform="translate(1e3 1182)" d="m0 0 3 4 4 7v2h-2l-5-9-1-3z" fill="#08273B"/>
<path transform="translate(380,1155)" d="m0 0 4 1-1 3 12 1v1h-14l-2-4z" fill="#EBF1E0"/>
<path transform="translate(859,457)" d="m0 0h12v1l-15 3-1-2z" fill="#DBD9E0"/>
<path transform="translate(799,433)" d="m0 0 7 4 1 7-3-1-2-6-4-3z" fill="#D0C5DF"/>
<path transform="translate(705,1300)" d="m0 0 3 2-12 6 2-5z" fill="#E69452"/>
<path transform="translate(964,1176)" d="m0 0h3l6 9-1 3-2-4-5-5z" fill="#209CA6"/>
<path transform="translate(357,1178)" d="m0 0h5l3 5-9-2z" fill="#F1F2DE"/>
<path transform="translate(443,1115)" d="m0 0 2 1-1 3-7 7 1-6z" fill="#091B21"/>
<path transform="translate(880,975)" d="m0 0h1l-1 9-2 5h-1l1-11z" fill="#0D1F22"/>
<path transform="translate(913,677)" d="m0 0h4l-1 4-4 3-1-5z" fill="#062A2F"/>
<path transform="translate(825,656)" d="m0 0h5l1 5h2l-1 2-4-2z" fill="#06292F"/>
<path transform="translate(835,467)" d="m0 0h10v3h-8l-4-2z" fill="#08273C"/>
<path transform="translate(705,1563)" d="m0 0 1 4-2 3h2v2l-7-1 1-2h2l2-5z" fill="#082637"/>
<path transform="translate(430,1398)" d="m0 0 5 1-2 6h-2l-2-6z" fill="#F6F7D3"/>
<path transform="translate(858,1187)" d="m0 0 2 1 3 3 1 7-4-4v-2l-2-1z" fill="#174339"/>
<path transform="translate(342,1173)" d="m0 0 6 1 3 3 4 2-2 1-10-5z" fill="#EDEDDC"/>
<path transform="translate(809,832)" d="m0 0h3l4 5v3l-4-2-3-4z" fill="#0A191F"/>
</svg>
