<svg class="animated" id="freepik_stories-medical-prescription" xmlns="http://www.w3.org/2000/svg" viewBox="0 0 500 500" version="1.1" xmlns:xlink="http://www.w3.org/1999/xlink" xmlns:svgjs="http://svgjs.com/svgjs"><style>svg#freepik_stories-medical-prescription:not(.animated) .animable {opacity: 0;}svg#freepik_stories-medical-prescription.animated #freepik--background-simple--inject-44 {animation: 6s Infinite  linear wind;animation-delay: 0s;}svg#freepik_stories-medical-prescription.animated #freepik--Diplomas--inject-44 {animation: 6s Infinite  linear floating;animation-delay: 2s;}svg#freepik_stories-medical-prescription.animated #freepik--Document--inject-44 {animation: 6s Infinite  linear floating;animation-delay: 0s;}            @keyframes wind {                0% {                    transform: rotate( 0deg );                }                25% {                    transform: rotate( 1deg );                }                75% {                    transform: rotate( -1deg );                }            }                    @keyframes floating {                0% {                    opacity: 1;                    transform: translateY(0px);                }                50% {                    transform: translateY(-10px);                }                100% {                    opacity: 1;                    transform: translateY(0px);                }            }        </style><g id="freepik--background-simple--inject-44" class="animable" style="transform-origin: 255.072px 250.894px;"><path d="M446.33,145.29s-80.4-115.75-180.78-128C176.94,6.41,94.69,48.79,83.24,140.35,79.16,173,71.9,209.07,59,238.83,44.53,272.21,19.84,300,38.75,364.17s98.77,122.12,156.82,122,112.58-52.89,157.57-100.88S541.4,292.17,446.33,145.29Z" style="fill: rgb(186, 104, 200); transform-origin: 255.072px 250.894px;" id="ellf2d6cegpf" class="animable"></path><g id="el1n3kzv18u22"><path d="M446.33,145.29s-80.4-115.75-180.78-128C176.94,6.41,94.69,48.79,83.24,140.35,79.16,173,71.9,209.07,59,238.83,44.53,272.21,19.84,300,38.75,364.17s98.77,122.12,156.82,122,112.58-52.89,157.57-100.88S541.4,292.17,446.33,145.29Z" style="fill: rgb(255, 255, 255); opacity: 0.7; transform-origin: 255.072px 250.894px;" class="animable"></path></g></g><g id="freepik--Window--inject-44" class="animable" style="transform-origin: 126.415px 271.84px;"><g id="elpktk0ps79vi"><g style="opacity: 0.3; transform-origin: 126.415px 271.84px;" class="animable"><polygon points="123.88 177.63 48.81 177.63 49.57 163.14 124.64 163.14 123.88 177.63" style="fill: none; stroke: rgb(0, 0, 0); stroke-linecap: round; stroke-linejoin: round; transform-origin: 86.725px 170.385px;" id="elcqt4u03nn6o" class="animable"></polygon><polygon points="123.88 197.92 48.81 197.92 49.57 183.43 124.64 183.43 123.88 197.92" style="fill: none; stroke: rgb(0, 0, 0); stroke-linecap: round; stroke-linejoin: round; transform-origin: 86.725px 190.675px;" id="el0no2dq3e1oo" class="animable"></polygon><polygon points="123.88 218.21 48.81 218.21 49.57 203.72 124.64 203.72 123.88 218.21" style="fill: none; stroke: rgb(0, 0, 0); stroke-linecap: round; stroke-linejoin: round; transform-origin: 86.725px 210.965px;" id="eljo1fj1ewbdq" class="animable"></polygon><polygon points="123.88 238.5 48.81 238.5 49.57 224.01 124.64 224.01 123.88 238.5" style="fill: none; stroke: rgb(0, 0, 0); stroke-linecap: round; stroke-linejoin: round; transform-origin: 86.725px 231.255px;" id="elbw4rzh8357" class="animable"></polygon><polygon points="123.88 258.8 48.81 258.8 49.57 244.3 124.64 244.3 123.88 258.8" style="fill: none; stroke: rgb(0, 0, 0); stroke-linecap: round; stroke-linejoin: round; transform-origin: 86.725px 251.55px;" id="elten3222pdo8" class="animable"></polygon><polygon points="123.88 279.09 48.81 279.09 49.57 264.59 124.64 264.59 123.88 279.09" style="fill: none; stroke: rgb(0, 0, 0); stroke-linecap: round; stroke-linejoin: round; transform-origin: 86.725px 271.84px;" id="eloxkx9eh0t59" class="animable"></polygon><polygon points="123.88 299.38 48.81 299.38 49.57 284.88 124.64 284.88 123.88 299.38" style="fill: none; stroke: rgb(0, 0, 0); stroke-linecap: round; stroke-linejoin: round; transform-origin: 86.725px 292.13px;" id="elwxuhhse4c1" class="animable"></polygon><polygon points="123.88 319.67 48.81 319.67 49.57 305.17 124.64 305.17 123.88 319.67" style="fill: none; stroke: rgb(0, 0, 0); stroke-linecap: round; stroke-linejoin: round; transform-origin: 86.725px 312.42px;" id="elgrlfxdzx4hf" class="animable"></polygon><polygon points="123.88 339.96 48.81 339.96 49.57 325.46 124.64 325.46 123.88 339.96" style="fill: none; stroke: rgb(0, 0, 0); stroke-linecap: round; stroke-linejoin: round; transform-origin: 86.725px 332.71px;" id="eltgmllxyio3n" class="animable"></polygon><polygon points="123.88 360.25 48.81 360.25 49.57 345.75 124.64 345.75 123.88 360.25" style="fill: none; stroke: rgb(0, 0, 0); stroke-linecap: round; stroke-linejoin: round; transform-origin: 86.725px 353px;" id="el0s87sf5r14j" class="animable"></polygon><polygon points="123.88 380.54 48.81 380.54 49.57 366.05 124.64 366.05 123.88 380.54" style="fill: none; stroke: rgb(0, 0, 0); stroke-linecap: round; stroke-linejoin: round; transform-origin: 86.725px 373.295px;" id="el2ulhpw3z4bk" class="animable"></polygon><polygon points="203.26 177.63 128.19 177.63 128.95 163.14 204.02 163.14 203.26 177.63" style="fill: none; stroke: rgb(0, 0, 0); stroke-linecap: round; stroke-linejoin: round; transform-origin: 166.105px 170.385px;" id="eljitunztnpy9" class="animable"></polygon><polygon points="203.26 197.92 128.19 197.92 128.95 183.43 204.02 183.43 203.26 197.92" style="fill: none; stroke: rgb(0, 0, 0); stroke-linecap: round; stroke-linejoin: round; transform-origin: 166.105px 190.675px;" id="els5yt0fi547m" class="animable"></polygon><polygon points="203.26 218.21 128.19 218.21 128.95 203.72 204.02 203.72 203.26 218.21" style="fill: none; stroke: rgb(0, 0, 0); stroke-linecap: round; stroke-linejoin: round; transform-origin: 166.105px 210.965px;" id="el2h9pybtbi0v" class="animable"></polygon><polygon points="203.26 238.5 128.19 238.5 128.95 224.01 204.02 224.01 203.26 238.5" style="fill: none; stroke: rgb(0, 0, 0); stroke-linecap: round; stroke-linejoin: round; transform-origin: 166.105px 231.255px;" id="ele8lk0zrfd3m" class="animable"></polygon><polygon points="203.26 258.8 128.19 258.8 128.95 244.3 204.02 244.3 203.26 258.8" style="fill: none; stroke: rgb(0, 0, 0); stroke-linecap: round; stroke-linejoin: round; transform-origin: 166.105px 251.55px;" id="el0yu9ezv80sg" class="animable"></polygon><polygon points="203.26 279.09 128.19 279.09 128.95 264.59 204.02 264.59 203.26 279.09" style="fill: none; stroke: rgb(0, 0, 0); stroke-linecap: round; stroke-linejoin: round; transform-origin: 166.105px 271.84px;" id="elotbl5qnlwnl" class="animable"></polygon><polygon points="203.26 299.38 128.19 299.38 128.95 284.88 204.02 284.88 203.26 299.38" style="fill: none; stroke: rgb(0, 0, 0); stroke-linecap: round; stroke-linejoin: round; transform-origin: 166.105px 292.13px;" id="eluooh0ym09ll" class="animable"></polygon><polygon points="203.26 319.67 128.19 319.67 128.95 305.17 204.02 305.17 203.26 319.67" style="fill: none; stroke: rgb(0, 0, 0); stroke-linecap: round; stroke-linejoin: round; transform-origin: 166.105px 312.42px;" id="elpcgtjwtq1o" class="animable"></polygon><polygon points="203.26 339.96 128.19 339.96 128.95 325.46 204.02 325.46 203.26 339.96" style="fill: none; stroke: rgb(0, 0, 0); stroke-linecap: round; stroke-linejoin: round; transform-origin: 166.105px 332.71px;" id="elmfrjpzrr91l" class="animable"></polygon><polygon points="203.26 360.25 128.19 360.25 128.95 345.75 204.02 345.75 203.26 360.25" style="fill: none; stroke: rgb(0, 0, 0); stroke-linecap: round; stroke-linejoin: round; transform-origin: 166.105px 353px;" id="el67rupa2om9p" class="animable"></polygon><polygon points="203.26 380.54 128.19 380.54 128.95 366.05 204.02 366.05 203.26 380.54" style="fill: none; stroke: rgb(0, 0, 0); stroke-linecap: round; stroke-linejoin: round; transform-origin: 166.105px 373.295px;" id="eluiwgkujuyg" class="animable"></polygon></g></g></g><g id="freepik--Diplomas--inject-44" class="animable" style="transform-origin: 398.795px 263.995px;"><g id="elofx5vicyslf"><g style="opacity: 0.3; transform-origin: 385.64px 229.285px;" class="animable"><rect x="337.19" y="192.63" width="96.9" height="73.31" style="fill: none; stroke: rgb(0, 0, 0); stroke-linecap: round; stroke-linejoin: round; transform-origin: 385.64px 229.285px;" id="el66veujr1swv" class="animable"></rect><rect x="342.44" y="198.69" width="86.38" height="61.2" style="fill: none; stroke: rgb(0, 0, 0); stroke-linecap: round; stroke-linejoin: round; transform-origin: 385.63px 229.29px;" id="el0typwielhpt" class="animable"></rect><line x1="370.61" y1="208.33" x2="400.66" y2="208.33" style="fill: none; stroke: rgb(0, 0, 0); stroke-linecap: round; stroke-linejoin: round; transform-origin: 385.635px 208.33px;" id="el59k3aitqr39" class="animable"></line><line x1="351.15" y1="217.21" x2="420.12" y2="217.21" style="fill: none; stroke: rgb(0, 0, 0); stroke-linecap: round; stroke-linejoin: round; transform-origin: 385.635px 217.21px;" id="elm7env47m6y" class="animable"></line><line x1="366.52" y1="234.96" x2="404.75" y2="234.96" style="fill: none; stroke: rgb(0, 0, 0); stroke-linecap: round; stroke-linejoin: round; transform-origin: 385.635px 234.96px;" id="el3tt3kdqcqfl" class="animable"></line><line x1="351.83" y1="252.72" x2="366.86" y2="252.72" style="fill: none; stroke: rgb(0, 0, 0); stroke-linecap: round; stroke-linejoin: round; transform-origin: 359.345px 252.72px;" id="elocgbrrnh8da" class="animable"></line><line x1="404.41" y1="252.72" x2="419.43" y2="252.72" style="fill: none; stroke: rgb(0, 0, 0); stroke-linecap: round; stroke-linejoin: round; transform-origin: 411.92px 252.72px;" id="elcndw1d1dpxe" class="animable"></line></g></g><g id="ely4l4nyge47n"><g style="opacity: 0.3; transform-origin: 424.74px 308.38px;" class="animable"><rect x="389.08" y="281.4" width="71.32" height="53.96" style="fill: none; stroke: rgb(0, 0, 0); stroke-linecap: round; stroke-linejoin: round; transform-origin: 424.74px 308.38px;" id="elpxdnyn60vzs" class="animable"></rect><rect x="392.95" y="285.86" width="63.58" height="45.05" style="fill: none; stroke: rgb(0, 0, 0); stroke-linecap: round; stroke-linejoin: round; transform-origin: 424.74px 308.385px;" id="elecwl0cwg1el" class="animable"></rect><line x1="413.69" y1="292.96" x2="435.8" y2="292.96" style="fill: none; stroke: rgb(0, 0, 0); stroke-linecap: round; stroke-linejoin: round; transform-origin: 424.745px 292.96px;" id="elnq2o484j8ep" class="animable"></line><line x1="399.36" y1="299.49" x2="450.13" y2="299.49" style="fill: none; stroke: rgb(0, 0, 0); stroke-linecap: round; stroke-linejoin: round; transform-origin: 424.745px 299.49px;" id="eli4a6x6zfew" class="animable"></line><line x1="410.67" y1="312.56" x2="438.82" y2="312.56" style="fill: none; stroke: rgb(0, 0, 0); stroke-linecap: round; stroke-linejoin: round; transform-origin: 424.745px 312.56px;" id="elwq5zpk5ilsj" class="animable"></line><line x1="399.86" y1="325.63" x2="410.92" y2="325.63" style="fill: none; stroke: rgb(0, 0, 0); stroke-linecap: round; stroke-linejoin: round; transform-origin: 405.39px 325.63px;" id="el78awd2icz3q" class="animable"></line><line x1="438.56" y1="325.63" x2="449.62" y2="325.63" style="fill: none; stroke: rgb(0, 0, 0); stroke-linecap: round; stroke-linejoin: round; transform-origin: 444.09px 325.63px;" id="el2435w11lj66" class="animable"></line></g></g></g><g id="freepik--Document--inject-44" class="animable" style="transform-origin: 273.1px 177.67px;"><path d="M377.78,319.36l-103.53-3.6q-6.4-.22-12.8,0L165,319.36l4.28-135.42q.24-7.69,0-15.4L165,40.76H377.78Z" style="fill: rgb(38, 50, 56); stroke: rgb(38, 50, 56); stroke-linecap: round; stroke-linejoin: round; transform-origin: 271.39px 180.06px;" id="elfq4cj9ayonr" class="animable"></path><rect x="168.42" y="35.98" width="212.78" height="278.6" style="fill: rgb(255, 255, 255); stroke: rgb(38, 50, 56); stroke-linecap: round; stroke-linejoin: round; transform-origin: 274.81px 175.28px;" id="el301u16pewp3" class="animable"></rect><rect x="182.56" y="111.91" width="184.49" height="186.76" style="fill: rgb(255, 255, 255); stroke: rgb(38, 50, 56); stroke-linecap: round; stroke-linejoin: round; transform-origin: 274.805px 205.29px;" id="elrcfv4nounf8" class="animable"></rect><path d="M184.29,84V49.85h10a9.68,9.68,0,0,1,5,1.14,6.78,6.78,0,0,1,2.83,3.31,13.65,13.65,0,0,1,.9,5.25,11,11,0,0,1-1.14,5.37,6.77,6.77,0,0,1-3.18,3,11.56,11.56,0,0,1-4.83.93h-3.37V84Zm6.24-19.56h2.36a5.91,5.91,0,0,0,2.64-.49,2.54,2.54,0,0,0,1.3-1.56,9.39,9.39,0,0,0,.36-2.89,13.69,13.69,0,0,0-.27-3,2.62,2.62,0,0,0-1.18-1.71,5.75,5.75,0,0,0-2.85-.55h-2.36Z" style="fill: rgb(186, 104, 200); transform-origin: 193.66px 66.9203px;" id="el98xl6bg99ws" class="animable"></path><path d="M191.88,100.47l6.87-18.12-6.66-16h5.82l4.42,10.58,3.88-10.58h5.4L205,83.53l7.08,16.94H206.3L201.45,89l-4.22,11.46Z" style="fill: rgb(186, 104, 200); transform-origin: 201.98px 83.41px;" id="elrd3cl7t822" class="animable"></path><line x1="287.57" y1="60.38" x2="366.44" y2="60.38" style="fill: none; stroke: rgb(38, 50, 56); stroke-linecap: round; stroke-linejoin: round; transform-origin: 327.005px 60.38px;" id="elagxl4pgqwb" class="animable"></line><line x1="287.57" y1="77.4" x2="366.44" y2="77.4" style="fill: none; stroke: rgb(38, 50, 56); stroke-linecap: round; stroke-linejoin: round; transform-origin: 327.005px 77.4px;" id="elatieb91ji9" class="animable"></line><line x1="304.6" y1="70.03" x2="366.44" y2="70.03" style="fill: none; stroke: rgb(38, 50, 56); stroke-linecap: round; stroke-linejoin: round; transform-origin: 335.52px 70.03px;" id="elh45zyu2lim5" class="animable"></line><line x1="304.6" y1="85.35" x2="366.44" y2="85.35" style="fill: none; stroke: rgb(38, 50, 56); stroke-linecap: round; stroke-linejoin: round; transform-origin: 335.52px 85.35px;" id="el2vpl810ua99" class="animable"></line><line x1="188.84" y1="132.44" x2="250.69" y2="132.44" style="fill: none; stroke: rgb(38, 50, 56); stroke-linecap: round; stroke-linejoin: round; transform-origin: 219.765px 132.44px;" id="eluf4qq68024" class="animable"></line><line x1="188.84" y1="148.59" x2="250.69" y2="148.59" style="fill: none; stroke: rgb(38, 50, 56); stroke-linecap: round; stroke-linejoin: round; transform-origin: 219.765px 148.59px;" id="el4wgpbuizy24" class="animable"></line><line x1="188.84" y1="140.79" x2="282.47" y2="140.79" style="fill: none; stroke: rgb(38, 50, 56); stroke-linecap: round; stroke-linejoin: round; transform-origin: 235.655px 140.79px;" id="el8xyhkhkf3zs" class="animable"></line><line x1="188.84" y1="168.27" x2="250.69" y2="168.27" style="fill: none; stroke: rgb(38, 50, 56); stroke-linecap: round; stroke-linejoin: round; transform-origin: 219.765px 168.27px;" id="eltspvs9nhivl" class="animable"></line><line x1="188.84" y1="184.42" x2="250.69" y2="184.42" style="fill: none; stroke: rgb(38, 50, 56); stroke-linecap: round; stroke-linejoin: round; transform-origin: 219.765px 184.42px;" id="elm3gt8tvu6e" class="animable"></line><line x1="188.84" y1="176.62" x2="282.47" y2="176.62" style="fill: none; stroke: rgb(38, 50, 56); stroke-linecap: round; stroke-linejoin: round; transform-origin: 235.655px 176.62px;" id="el9vfrcz6kozn" class="animable"></line><line x1="187.52" y1="288.6" x2="246.15" y2="288.6" style="fill: none; stroke: rgb(38, 50, 56); stroke-linecap: round; stroke-linejoin: round; transform-origin: 216.835px 288.6px;" id="ely2w07l8necd" class="animable"></line><line x1="298.7" y1="288.6" x2="357.33" y2="288.6" style="fill: none; stroke: rgb(38, 50, 56); stroke-linecap: round; stroke-linejoin: round; transform-origin: 328.015px 288.6px;" id="elfg8w92shw7n" class="animable"></line><path d="M195.79,224.23a21,21,0,1,0,29,6.51A21,21,0,0,0,195.79,224.23ZM215.94,256a16.59,16.59,0,1,1,5.13-22.9A16.59,16.59,0,0,1,215.94,256Z" style="fill: rgb(186, 104, 200); transform-origin: 207.04px 241.962px;" id="elv2nmmh2sq" class="animable"></path><g id="elmk4apm7qizm"><rect x="196.24" y="240.54" width="21.17" height="3.41" style="fill: rgb(186, 104, 200); transform-origin: 206.825px 242.245px; transform: rotate(-32.36deg);" class="animable"></rect></g><path d="M196.91,282s.29,6.66,9-5.22,7.54-11,5.22-4.34a58.76,58.76,0,0,1-7,13s10.44-16.52,10.44-11.89-9.86,24.35-7.83,22.61,8.41-10.43,8.41-10.43-.87,5.79,1.44,3.18,4.93-7.82,4.64-4.92-4.06,6.37-.29,2.9,6.67-7.83,5.8-4.64-3.19,4.35-.87,3.19,15.36-22.9,11.3-20.29-11.59,25.21-8.11,23.47,7.53-10.43,7.24-6.08.87,4.35,2,2.9" style="fill: none; stroke: rgb(38, 50, 56); stroke-linecap: round; stroke-linejoin: round; transform-origin: 217.605px 280.6px;" id="elw8ofbeojky" class="animable"></path></g><g id="freepik--Table--inject-44" class="animable" style="transform-origin: 254.82px 470.03px;"><line x1="483.09" y1="465.25" x2="26.55" y2="465.25" style="fill: none; stroke: rgb(38, 50, 56); stroke-linecap: round; stroke-linejoin: round; transform-origin: 254.82px 465.25px;" id="eled7ng9afog" class="animable"></line><line x1="483.09" y1="474.81" x2="26.55" y2="474.81" style="fill: none; stroke: rgb(38, 50, 56); stroke-linecap: round; stroke-linejoin: round; transform-origin: 254.82px 474.81px;" id="el7wlg5byhex" class="animable"></line></g><g id="freepik--character-2--inject-44" class="animable" style="transform-origin: 346.485px 373.555px;"><path d="M458.08,359.8h-96.8a6.35,6.35,0,0,0-6.29,5.44l-14.48,99H455.62l8.79-97.54A6.35,6.35,0,0,0,458.08,359.8Z" style="fill: rgb(38, 50, 56); stroke: rgb(38, 50, 56); stroke-linecap: round; stroke-linejoin: round; transform-origin: 402.472px 412.02px;" id="elzg989lq5ruk" class="animable"></path><path d="M327,343.64s-26.19,13-35.18,16.59-11.2,5.2-12,7.4-35.78,57.17-39.77,62.17-12.6,15.79-11.4,23.18,10.8,13.8,20,13.6,15-2,16-4.6,26.39-48,26.39-48l8,50.57H401.19s8-69.16,8-79.36,2-22.19-2.2-24.79-21.59-8.59-34.39-12.79-16.79-5-19.78-5S327,343.64,327,343.64Z" style="fill: rgb(255, 255, 255); stroke: rgb(38, 50, 56); stroke-linecap: round; stroke-linejoin: round; transform-origin: 319.101px 404.597px;" id="elb691w32b6he" class="animable"></path><path d="M324.23,344s-3.4,6.4-3.6,11.6-1,14.79-4,20.59-5.2,9-3.6,8.39,10.79-10.79,11.79-13,2.6,2,2.6,2-3,8.59-3.4,9.79,12.59,17.79,12.59,17.79,11.2-8.79,13.8-10.79,1.8-3.6,2-6.2,1-6.39,2.39-8.59S360.21,382,363,386s5.6,5.4,5.2,2.4-1.8-8.8-2.8-19-.8-22.39-3.4-26.19-16.24-4.55-25.19-5.19A13.22,13.22,0,0,0,324.23,344Z" style="fill: rgb(255, 255, 255); stroke: rgb(38, 50, 56); stroke-linecap: round; stroke-linejoin: round; transform-origin: 340.365px 369.549px;" id="elnbd7qsq298o" class="animable"></path><polyline points="283.85 378.05 291.05 414.01 281.75 390.1" style="fill: none; stroke: rgb(38, 50, 56); stroke-linecap: round; stroke-linejoin: round; transform-origin: 286.4px 396.03px;" id="ely70w1kq9wc" class="animable"></polyline><path d="M325.23,353.64s2.8,15.59,5.4,27.58a123,123,0,0,0,6,20s13.2-22.19,17-33.78a133.83,133.83,0,0,0,5-19.59H325.23Z" style="fill: none; stroke: rgb(38, 50, 56); stroke-linecap: round; stroke-linejoin: round; transform-origin: 341.93px 374.535px;" id="elf8bg4ymgp0n" class="animable"></path><path d="M339.82,359l-7.19,9,5,9.6-4.92,11.91a108.59,108.59,0,0,0,3.92,11.67s4.12-6.92,8.41-15l-3.61-8.33,4.4-10Z" style="fill: rgb(186, 104, 200); stroke: rgb(38, 50, 56); stroke-linecap: round; stroke-linejoin: round; transform-origin: 339.23px 380.09px;" id="ellsllvkc28y9" class="animable"></path><path d="M325.23,347.84v5.8s1.93,10.76,4.07,21.27l10.12-10.68,10.67,11.82a84.2,84.2,0,0,0,3.53-8.62,133.83,133.83,0,0,0,5-19.59Z" style="fill: rgb(255, 255, 255); stroke: rgb(38, 50, 56); stroke-linecap: round; stroke-linejoin: round; transform-origin: 341.925px 361.945px;" id="el5hqk7av2hoe" class="animable"></path><path d="M238.08,435.72s18.67-6.82,28.74,9.77" style="fill: none; stroke: rgb(38, 50, 56); stroke-linecap: round; stroke-linejoin: round; transform-origin: 252.45px 439.911px;" id="el7uxlogub962" class="animable"></path><path d="M267.15,440.37s-10.43,2.36-16,11.25,5.76,9.88,8.89,9.88,6.09-2.1,6.26-3.19,4.27-11.63,4.11-14.09A4,4,0,0,0,267.15,440.37Z" style="fill: rgb(255, 255, 255); stroke: rgb(38, 50, 56); stroke-linecap: round; stroke-linejoin: round; transform-origin: 260.024px 450.935px;" id="el0ff5r93onuw6" class="animable"></path><path d="M262.35,444.05s-5.77,5-5.38,7,8.95,9.7,10.6,8.59a2.54,2.54,0,0,0,1.11-3.42C268.21,455.47,262.35,444.05,262.35,444.05Z" style="fill: rgb(255, 255, 255); stroke: rgb(38, 50, 56); stroke-linecap: round; stroke-linejoin: round; transform-origin: 262.955px 451.899px;" id="el5ww80oiifee" class="animable"></path><path d="M257,451s-3.39,3.61-2.28,5.26,8.86,5.86,10.87,4.59.71-2.57.71-2.57Z" style="fill: rgb(255, 255, 255); stroke: rgb(38, 50, 56); stroke-linecap: round; stroke-linejoin: round; transform-origin: 260.605px 456.043px;" id="eld7s1y94jw1" class="animable"></path><polygon points="276.86 443.86 269.92 442.66 271.55 452.65 278.64 452.87 276.86 443.86" style="fill: rgb(255, 255, 255); stroke: rgb(38, 50, 56); stroke-linecap: round; stroke-linejoin: round; transform-origin: 274.28px 447.765px;" id="elwjc83cw4jl" class="animable"></polygon><path d="M264.37,428.15l8.13,28.49,3.95,3.59v-5.07l-8.6-28a1.8,1.8,0,0,0-2.32-1.18h0A1.81,1.81,0,0,0,264.37,428.15Z" style="fill: rgb(38, 50, 56); stroke: rgb(38, 50, 56); stroke-linecap: round; stroke-linejoin: round; transform-origin: 270.38px 443.054px;" id="elp7dqcp6lnoh" class="animable"></path><path d="M267.15,440.37s-4.8,2.81-4.32,4.94,5.66,12.09,7.53,12.22,3-1,2.73-3.16-2-10-3.17-11.71S268.62,440.27,267.15,440.37Z" style="fill: rgb(255, 255, 255); stroke: rgb(38, 50, 56); stroke-linecap: round; stroke-linejoin: round; transform-origin: 267.963px 448.95px;" id="elis9ja26tmxg" class="animable"></path><path d="M276.86,443.86s5.11.64,6,2.2-2.68,7.78-3.82,9.2-3.18,1.36-3.24-2.24A54.93,54.93,0,0,1,276.86,443.86Z" style="fill: rgb(255, 255, 255); stroke: rgb(38, 50, 56); stroke-linecap: round; stroke-linejoin: round; transform-origin: 279.4px 449.992px;" id="elbuwm3itt8it" class="animable"></path><path d="M249.22,455.89h56.07a5.92,5.92,0,0,1,5.91,5.91h0a5,5,0,0,1-5,5H250a4.6,4.6,0,0,1-4.6-4.6V459.7A3.81,3.81,0,0,1,249.22,455.89Z" style="fill: rgb(255, 255, 255); stroke: rgb(38, 50, 56); stroke-linecap: round; stroke-linejoin: round; transform-origin: 278.3px 461.345px;" id="ellx9v5u7hhae" class="animable"></path><path d="M349,443s-14.59-1.6-18.19-2.8-9.4-2.2-11.4-.6-11.79,13-12,14.39-2.2,6-1.2,7.2a7.25,7.25,0,0,0,3,1.8s13,3.6,14.39,3.8,14.79-.4,14.79-.4l7-2.6,9.79-.2s.2,3.2.4-4.6S349,443,349,443Z" style="fill: rgb(255, 255, 255); stroke: rgb(38, 50, 56); stroke-linecap: round; stroke-linejoin: round; transform-origin: 330.757px 452.801px;" id="eluggoy7g43w" class="animable"></path><path d="M309.24,463s.2-4.6,1.2-6.6,12.39-12.19,12.39-12.19" style="fill: none; stroke: rgb(38, 50, 56); stroke-linecap: round; stroke-linejoin: round; transform-origin: 316.035px 453.605px;" id="elv3r8i4rx4f" class="animable"></path><path d="M313,464.18s2-5,2.8-5.4,10.19-6.4,10.19-6.4" style="fill: none; stroke: rgb(38, 50, 56); stroke-linecap: round; stroke-linejoin: round; transform-origin: 319.495px 458.28px;" id="elzv0jwqym19" class="animable"></path><path d="M319.83,465.58s.4-2,1.4-2.4,9.4-4.2,9.4-4.2" style="fill: none; stroke: rgb(38, 50, 56); stroke-linecap: round; stroke-linejoin: round; transform-origin: 325.23px 462.28px;" id="el5yy9096dgax" class="animable"></path><polyline points="328.83 466.58 332.63 465.58 332.23 463.78 328.23 464.78" style="fill: none; stroke: rgb(38, 50, 56); stroke-linecap: round; stroke-linejoin: round; transform-origin: 330.43px 465.18px;" id="elab2tqkhtd1d" class="animable"></polyline><path d="M394.79,378.62s-10.59,22.19-10,30S388,429.4,388,429.4s-16.79,6.59-22.59,9S349,443,349,443l5.39,21.19-.79,2.2h58.16s4.4-.8,5.2-1.8,1.6-1.4,2-4.6,3-31.18,2.4-39-8.8-48.37-9.8-52.57-2.79-7-4.59-8-9.6-1.79-9.6-1.79" style="fill: rgb(255, 255, 255); stroke: rgb(38, 50, 56); stroke-linecap: round; stroke-linejoin: round; transform-origin: 385.225px 412.51px;" id="elo9vm4uox55a" class="animable"></path><path d="M389.4,429.8s15.39.8,23,5.59" style="fill: none; stroke: rgb(38, 50, 56); stroke-linecap: round; stroke-linejoin: round; transform-origin: 400.9px 432.595px;" id="el5rgassnxocc" class="animable"></path><path d="M392.19,427.8s10.8-.6,16.6,1.2" style="fill: none; stroke: rgb(38, 50, 56); stroke-linecap: round; stroke-linejoin: round; transform-origin: 400.49px 428.352px;" id="eleazp5k1ckaq" class="animable"></path><path d="M389.2,378s-5.4,12.6-5.6,17.4S383,403,383,403" style="fill: none; stroke: rgb(38, 50, 56); stroke-linecap: round; stroke-linejoin: round; transform-origin: 386.1px 390.5px;" id="elkv9epjri7l" class="animable"></path><path d="M364.61,344.64S376.8,362,367,410.41" style="fill: none; stroke: rgb(38, 50, 56); stroke-linecap: round; stroke-linejoin: round; stroke-width: 2px; transform-origin: 367.711px 377.525px;" id="elr51g7eureb" class="animable"></path><path d="M372.8,411.81a6,6,0,1,0-6,6A6,6,0,0,0,372.8,411.81Z" style="fill: rgb(255, 255, 255); stroke: rgb(38, 50, 56); stroke-linecap: round; stroke-linejoin: round; transform-origin: 366.8px 411.81px;" id="elxtvf4l3ak0c" class="animable"></path><path d="M323,346.44s-6.19,4-7.19,20.19" style="fill: none; stroke: rgb(38, 50, 56); stroke-linecap: round; stroke-linejoin: round; stroke-width: 2px; transform-origin: 319.405px 356.535px;" id="elvh0rk1azto" class="animable"></path><path d="M324.41,391.16c-1.51,10.92-3.57,22.65-4,25.22-1,5.5-7.53,7.42-11.73,5.62" style="fill: none; stroke: rgb(38, 50, 56); stroke-linecap: round; stroke-linejoin: round; stroke-width: 2px; transform-origin: 316.545px 406.908px;" id="elbf15ikp56at" class="animable"></path><path d="M308.75,391.88c-1.37-6.12-2.21-11.43-1.91-13.86,1.4-11.19,9-11.39,9-11.39s9,1.2,9.59,10.8a79.93,79.93,0,0,1-1,13.73" style="fill: none; stroke: rgb(38, 50, 56); stroke-linecap: round; stroke-linejoin: round; stroke-width: 2px; transform-origin: 316.108px 379.255px;" id="el9tskpiy34y" class="animable"></path><path d="M325.63,421.2s-4.2,2.4-7,.8c-1.89-1.08-7-17.36-9.88-30.12" style="fill: none; stroke: rgb(38, 50, 56); stroke-linecap: round; stroke-linejoin: round; stroke-width: 2px; transform-origin: 317.19px 407.215px;" id="elgzm4aqxpnhi" class="animable"></path><g id="el3c14hi8mm21"><rect x="324.44" y="419.24" width="4.94" height="3.19" rx="1.57" style="fill: none; stroke: rgb(38, 50, 56); stroke-linecap: round; stroke-linejoin: round; transform-origin: 326.91px 420.835px; transform: rotate(-23.32deg);" class="animable"></rect></g><g id="el7ykkrb2zqth"><rect x="305.1" y="419.43" width="4.94" height="3.19" rx="1.57" style="fill: none; stroke: rgb(38, 50, 56); stroke-linecap: round; stroke-linejoin: round; transform-origin: 307.57px 421.025px; transform: rotate(30.99deg);" class="animable"></rect></g><path d="M315.84,298.07s-3.2,7.59-2.6,12.39,7,10,7,10,2.2-21.39,2.2-22.19S318.43,295.67,315.84,298.07Z" style="fill: rgb(38, 50, 56); stroke: rgb(38, 50, 56); stroke-linecap: round; stroke-linejoin: round; transform-origin: 317.803px 308.664px;" id="elrsfojqulcwn" class="animable"></path><line x1="313.54" y1="325.26" x2="317.79" y2="322.29" style="fill: none; stroke: rgb(38, 50, 56); stroke-linecap: round; stroke-linejoin: round; stroke-width: 2px; transform-origin: 315.665px 323.775px;" id="el9uug18b4red" class="animable"></line><path d="M318.23,299.47s-.8,21.19-.4,25.18,2,16.79,3.4,20.79,6,16.79,9.6,18.19,10.79,2.4,13.19.8,11.19-7.59,13.59-13.39a39.31,39.31,0,0,0,2.8-10.59,14.73,14.73,0,0,0,7.6-10.6c1.2-7.6-2-9.79-2-9.79l.2-13.2s-2.2-9.19-8-14.19-12.59-5.4-19.59-1.6S318.23,299.47,318.23,299.47Z" style="fill: rgb(255, 255, 255); stroke: rgb(38, 50, 56); stroke-linecap: round; stroke-linejoin: round; transform-origin: 342.999px 326.889px;" id="el2ygb4fg5ut8" class="animable"></path><path d="M355.81,298.27s.2-5.2-4.79-3.4-6.2,5.2-13.6,8.2-17.19-.4-20.58-2.4-5.8-4.8-1.2-10,15.39-10.39,27-10.39,20.59,9.59,24.39,13.59,4.4,9,3,12.59-4,13.6-4,13.6-1.6-.2-2.2,2.19-.4,5-3,5.2-2.4-6.79-2.4-6.79-6.39-2-7.19-6.6S355.81,302.67,355.81,298.27Z" style="fill: rgb(38, 50, 56); stroke: rgb(38, 50, 56); stroke-linecap: round; stroke-linejoin: round; transform-origin: 341.909px 303.867px;" id="elpwgslh0qete" class="animable"></path><path d="M332,328.52l-18.49-3.26,1.07,8.29a2.42,2.42,0,0,0,2,2.08l11.24,1.77a2.41,2.41,0,0,0,2.75-1.92Z" style="fill: none; stroke: rgb(38, 50, 56); stroke-linecap: round; stroke-linejoin: round; stroke-width: 2px; transform-origin: 322.755px 331.345px;" id="eljdboxeoe0w" class="animable"></path><path d="M335.37,328.87l21.44-.62-2.1,7.76a2.56,2.56,0,0,1-2.54,1.72l-13,.18a2.81,2.81,0,0,1-2.94-2.21Z" style="fill: none; stroke: rgb(38, 50, 56); stroke-linecap: round; stroke-linejoin: round; stroke-width: 2px; transform-origin: 346.09px 333.083px;" id="elrlftbw6bcyo" class="animable"></path><line x1="332.03" y1="328.52" x2="335.37" y2="328.87" style="fill: none; stroke: rgb(38, 50, 56); stroke-linecap: round; stroke-linejoin: round; stroke-width: 2px; transform-origin: 333.7px 328.695px;" id="eluoss19mdxd" class="animable"></line><line x1="356.81" y1="328.25" x2="363.81" y2="322.25" style="fill: rgb(255, 255, 255); stroke: rgb(38, 50, 56); stroke-linecap: round; stroke-linejoin: round; stroke-width: 2px; transform-origin: 360.31px 325.25px;" id="elisu1vbus8oi" class="animable"></line><path d="M338.22,326.45s6-4.59,11.6-1.8" style="fill: none; stroke: rgb(38, 50, 56); stroke-linecap: round; stroke-linejoin: round; stroke-width: 2px; transform-origin: 344.02px 325.1px;" id="elt8oo5quqj8b" class="animable"></path><path d="M329.23,325.45s-4.6-5-9.8-1.6" style="fill: none; stroke: rgb(38, 50, 56); stroke-linecap: round; stroke-linejoin: round; stroke-width: 2px; transform-origin: 324.33px 324.058px;" id="elq9ht5f45nil" class="animable"></path><path d="M330.43,342.84s-1,4.2,0,5a8.83,8.83,0,0,0,5.59,1" style="fill: none; stroke: rgb(38, 50, 56); stroke-linecap: round; stroke-linejoin: round; transform-origin: 333.003px 345.89px;" id="elcm2kri9huub" class="animable"></path><path d="M327.43,351s4,3,7.8,3.2,8.19-2.6,8.19-2.6" style="fill: none; stroke: rgb(38, 50, 56); stroke-linecap: round; stroke-linejoin: round; transform-origin: 335.425px 352.605px;" id="el3z179wucra8" class="animable"></path><path d="M342.22,330.65s2.4,2.8,6.4-.2" style="fill: none; stroke: rgb(38, 50, 56); stroke-linecap: round; stroke-linejoin: round; transform-origin: 345.42px 331.144px;" id="elsasxxadq8d" class="animable"></path><path d="M322.53,329.42s2,3.1,6.36.67" style="fill: none; stroke: rgb(38, 50, 56); stroke-linecap: round; stroke-linejoin: round; transform-origin: 325.71px 330.22px;" id="elmeekehnzwbd" class="animable"></path></g><g id="freepik--character-1--inject-44" class="animable" style="transform-origin: 138.698px 372.128px;"><path d="M198.5,298.25s1.27,19.05.31,20.64L196,323.65s1.27,13.66-1.27,15.24a16.73,16.73,0,0,1-6.35,1.91s-2.54,10.16-3.5,11.43-6.67,5.4-8.57,6-7.94,1-22.23-7.62-19.69-11.43-19.37-16.19,1-10.16,1-10.16,1.59-22.87,4.45-29.85,39.06-10.8,47-8.89S198.5,298.25,198.5,298.25Z" style="fill: rgb(255, 255, 255); stroke: rgb(38, 50, 56); stroke-linecap: round; stroke-linejoin: round; transform-origin: 166.933px 321.768px;" id="el98g4rmp3vwt" class="animable"></path><path d="M161.66,329.68l2.23,1.59s-1.91,7.62-1,11.12" style="fill: none; stroke: rgb(38, 50, 56); stroke-linecap: round; stroke-linejoin: round; transform-origin: 162.775px 336.035px;" id="el6rhkasm30eh" class="animable"></path><path d="M193.41,323.3c-.32,1.46-1.09,2.52-1.71,2.38s-.87-1.42-.54-2.88,1.09-2.52,1.71-2.38S193.74,321.85,193.41,323.3Z" style="fill: rgb(38, 50, 56); transform-origin: 192.285px 323.05px;" id="elxrik96hocng" class="animable"></path><path d="M190.17,317.47s3.46-3.46,6.35-.19" style="fill: none; stroke: rgb(38, 50, 56); stroke-linecap: round; stroke-linejoin: round; transform-origin: 193.345px 316.672px;" id="elwuadm7dzv7s" class="animable"></path><path d="M185.8,295.71s4.12,7.62,3.81,9.21-13.34,5.4-13.34,5.4-1.27,7.62-3.18,8.57l-1.9.95a33.26,33.26,0,0,1-3.81-6.67c-2.22-4.76-5.4-6-8.89-1.27s-.64,15.88,1.27,16.83l1.9.95s-1.59,1.59-7.62,2.55-10.48,2.22-14.92.95-10.8-13.34-13-28.9,4.76-28.89,14-33,30.17-.32,31.75.63,12.39-4.12,18.74-.95,6,6.67,7.62,8.89,9.84-.63,10.48,7.31-2.54,12.7-6.67,13.33S185.8,295.71,185.8,295.71Z" style="fill: rgb(38, 50, 56); stroke: rgb(38, 50, 56); stroke-linecap: round; stroke-linejoin: round; transform-origin: 167.252px 301.561px;" id="elmdxfr5h6bce" class="animable"></path><path d="M110.61,345.56S80.18,361.79,74.38,365s-6.67,6.09-7,9,0,100.85,0,100.85H231.75S206.82,400,206,391.64s-2.6-23.19-4.92-24.93S166,350.48,166,350.48s-7.83-8.4-26.37-8.4S110.61,345.56,110.61,345.56Z" style="fill: rgb(186, 104, 200); stroke: rgb(38, 50, 56); stroke-linecap: round; stroke-linejoin: round; transform-origin: 149.492px 408.465px;" id="elye6tsr3q3h" class="animable"></path><path d="M129.45,405.19c.86.34,1.73.65,2.6.94" style="fill: none; stroke: rgb(38, 50, 56); stroke-linecap: round; stroke-linejoin: round; transform-origin: 130.75px 405.66px;" id="elrgb8dim3dxg" class="animable"></path><path d="M97,378.31s12,16.74,28.39,25" style="fill: none; stroke: rgb(38, 50, 56); stroke-linecap: round; stroke-linejoin: round; transform-origin: 111.195px 390.81px;" id="elijd0n4kya6" class="animable"></path><path d="M107.42,397.72s6.66,6.67,20.57,10.44" style="fill: none; stroke: rgb(38, 50, 56); stroke-linecap: round; stroke-linejoin: round; transform-origin: 117.705px 402.94px;" id="elxk2v0q96ck" class="animable"></path><path d="M190,373.7c-4.63,5.26-11.15,13.67-13.31,21.41" style="fill: none; stroke: rgb(38, 50, 56); stroke-linecap: round; stroke-linejoin: round; transform-origin: 183.345px 384.405px;" id="elm20h7xudgf" class="animable"></path><path d="M194.94,368.45s-.92.89-2.36,2.42" style="fill: none; stroke: rgb(38, 50, 56); stroke-linecap: round; stroke-linejoin: round; transform-origin: 193.76px 369.66px;" id="elj6m3hgty8y" class="animable"></path><path d="M178.42,385.84s-4.35,8.4-5.21,13.62" style="fill: none; stroke: rgb(38, 50, 56); stroke-linecap: round; stroke-linejoin: round; transform-origin: 175.815px 392.65px;" id="elwc7gqrjejb" class="animable"></path><path d="M108.87,347s16.81-.58,32.75-.29S168,351.93,168,351.93s-9.57-11.59-13.91-14.2-17.68-7-28.69-3.48A31.94,31.94,0,0,0,108.87,347Z" style="fill: rgb(186, 104, 200); stroke: rgb(38, 50, 56); stroke-linecap: round; stroke-linejoin: round; transform-origin: 138.435px 342.434px;" id="elihhm5g1ycmm" class="animable"></path><path d="M61.07,474.74,45.75,416a4.9,4.9,0,0,1,4.8-5.9H172.44a4.92,4.92,0,0,1,4.8,3.86l13.53,60.84" style="fill: rgb(38, 50, 56); stroke: rgb(38, 50, 56); stroke-linecap: round; stroke-linejoin: round; transform-origin: 118.208px 442.45px;" id="el04usdkotbr24" class="animable"></path></g><defs>     <filter id="active" height="200%">         <feMorphology in="SourceAlpha" result="DILATED" operator="dilate" radius="2"></feMorphology>                <feFlood flood-color="#32DFEC" flood-opacity="1" result="PINK"></feFlood>        <feComposite in="PINK" in2="DILATED" operator="in" result="OUTLINE"></feComposite>        <feMerge>            <feMergeNode in="OUTLINE"></feMergeNode>            <feMergeNode in="SourceGraphic"></feMergeNode>        </feMerge>    </filter>    <filter id="hover" height="200%">        <feMorphology in="SourceAlpha" result="DILATED" operator="dilate" radius="2"></feMorphology>                <feFlood flood-color="#ff0000" flood-opacity="0.5" result="PINK"></feFlood>        <feComposite in="PINK" in2="DILATED" operator="in" result="OUTLINE"></feComposite>        <feMerge>            <feMergeNode in="OUTLINE"></feMergeNode>            <feMergeNode in="SourceGraphic"></feMergeNode>        </feMerge>            <feColorMatrix type="matrix" values="0   0   0   0   0                0   1   0   0   0                0   0   0   0   0                0   0   0   1   0 "></feColorMatrix>    </filter></defs></svg>